<svg width="31" height="40" viewBox="0 0 31 40" fill="none" xmlns="http://www.w3.org/2000/svg">
<path d="M15.1197 22.3367C15.0993 22.3367 15.0821 22.3445 15.0659 22.3478H15.0627L14.3023 22.4626L14.1349 22.4888L13.8464 22.5332L13.6984 22.5534C13.5434 22.5769 13.3847 22.601 13.2372 22.6278C13.1247 22.6435 13.0031 22.6631 12.8847 22.6813C12.2766 21.1871 11.6378 19.7438 10.9796 18.3854L10.1562 16.0054C10.1015 15.8475 9.99788 15.7219 9.86761 15.6559C9.73734 15.5898 9.59088 15.5885 9.45981 15.6522L9.07233 15.8402L8.19296 8.66619C8.181 8.5695 8.15129 8.4773 8.10602 8.39641C8.06075 8.31551 8.00108 8.24798 7.93141 8.1988L3.20143 4.85267C3.12988 4.80208 3.04966 4.7722 2.96703 4.76537C2.88439 4.75854 2.80158 4.77493 2.72502 4.81327C2.64847 4.85162 2.58024 4.91087 2.52566 4.98643C2.47107 5.06199 2.4316 5.15181 2.41032 5.2489L1.02292 11.5658C1.00188 11.6614 0.999036 11.7616 1.01461 11.8588C1.03018 11.9559 1.06375 12.0475 1.11279 12.1266L4.72876 17.95L4.36173 18.1282C4.29546 18.1604 4.23515 18.2083 4.18429 18.2691C4.13344 18.3299 4.09306 18.4023 4.06552 18.4822C4.03797 18.5621 4.0238 18.6478 4.02384 18.7344C4.02388 18.821 4.03812 18.9068 4.06573 18.9866L4.88429 21.351C5.51072 24.1919 6.17913 26.7521 6.92449 29.1778V39.3611H8.00083V38.9982C8.32661 39.2331 8.69816 39.3584 9.07717 39.3611H17.1497C17.2267 39.3611 17.3027 39.341 17.3727 39.3023C17.4427 39.2636 17.505 39.2072 17.5555 39.1368C17.606 39.0664 17.6435 38.9837 17.6654 38.8942C17.6873 38.8048 17.6931 38.7107 17.6825 38.6182C17.6299 38.2079 17.556 37.8019 17.4613 37.4028L18.7642 36.9001L24.8219 39.2384C25.0324 39.3196 25.2521 39.361 25.4731 39.3611H28.4513C28.8303 39.3584 29.2019 39.2331 29.5276 38.9982V39.3611H30.604V27.6176C30.6034 26.504 30.2676 25.429 29.6596 24.5945C29.0516 23.7601 28.2134 23.2237 27.3023 23.0861L22.4588 22.3484C22.3298 22.3281 22.2113 22.2513 22.1256 22.1326C22.0399 22.0139 21.9928 21.8613 21.9933 21.7035V20.2843C23.2356 18.9524 23.9988 17.0836 24.1196 15.0778L24.2471 14.5425C24.6997 14.5185 25.1345 14.3214 25.4891 13.9793C25.8436 13.6373 26.0999 13.1679 26.221 12.6384C26.3422 12.1089 26.3221 11.5464 26.1635 11.0316C26.005 10.5169 25.7162 10.0761 25.3385 9.77265C25.5694 8.43418 25.5116 7.04607 25.1707 5.74263C24.8298 4.43919 24.2173 3.26453 23.3925 2.33229C23.28 2.21022 23.1557 2.08163 23.0373 1.97196C22.0864 1.07529 20.9598 0.493539 19.7678 0.283677C18.5758 0.0738144 17.3594 0.243034 16.2375 0.774764L14.3512 1.67168C12.3718 1.74806 11.3945 3.96424 11.3047 6.15822C11.272 7.55806 11.4115 8.95599 11.7185 10.306C11.498 10.6283 11.3455 11.0108 11.2741 11.4206C11.2027 11.8303 11.2146 12.255 11.3087 12.658C11.4028 13.0609 11.5764 13.43 11.8144 13.7334C12.0524 14.0369 12.3477 14.2655 12.6748 14.3995C12.9475 15.2777 13.2928 16.1202 13.7054 16.914C14.0576 18.2147 14.6892 19.3781 15.5352 20.2843V21.7035C15.5363 21.8508 15.4957 21.9941 15.42 22.1094C15.3444 22.2247 15.2384 22.3049 15.1197 22.3367ZM2.13047 11.5952L3.04536 7.43244L4.5813 11.8713C4.46166 12.0504 4.38467 12.2657 4.35868 12.4939C4.33269 12.7222 4.35868 12.9548 4.43384 13.1664C4.54716 13.4846 4.75832 13.7366 5.02244 13.8689C5.28655 14.0012 5.58279 14.0032 5.84815 13.8747C5.98186 13.8105 6.10361 13.7145 6.20621 13.5923C6.30881 13.4701 6.39018 13.3242 6.44552 13.1632C6.50052 13.0051 6.52886 12.8353 6.52886 12.6638C6.52886 12.4923 6.50052 12.3225 6.44552 12.1644C6.37055 11.9526 6.25108 11.7684 6.09903 11.6301C5.94699 11.4919 5.7677 11.4044 5.57907 11.3765L4.04959 6.96375L7.17097 9.16948L8.04927 16.3389L5.76635 17.4487L2.13047 11.5952ZM5.26962 19.0943L5.78196 18.8456L5.89766 18.7895L9.37048 17.1014L9.79025 18.3129L5.6867 20.3039L5.26962 19.0943ZM7.96047 28.807C7.26085 26.5484 6.6328 24.1664 6.04189 21.5416L10.2681 19.4899C10.8983 20.8163 11.5113 22.2211 12.0925 23.6729C12.9149 25.7272 13.6672 27.8559 14.3276 30.0048C14.3561 30.0962 14.3814 30.1896 14.4115 30.2816L14.0741 30.2405L10.9333 28.3357C10.8316 28.2736 10.7162 28.2528 10.604 28.2763L10.2714 28.3416C9.97269 27.4531 9.67938 26.534 9.40277 25.5862L8.38831 26.0222C8.64287 26.8931 8.91142 27.7377 9.18427 28.5609L7.96047 28.807ZM15.7709 38.0556L16.4323 37.8003C16.4517 37.8865 16.4738 37.97 16.4915 38.0556H15.7709ZM12.3832 37.9935C12.2763 38.0339 12.1651 38.0548 12.0533 38.0556H9.07717C8.79171 38.0556 8.51794 37.918 8.31609 37.6732C8.11423 37.4283 8.00083 37.0962 8.00083 36.75V35.2336L10.2073 34.163L13.7883 34.981L16.9883 36.2154L12.3832 37.9935ZM29.5276 34.7917V36.75C29.5276 37.0962 29.4142 37.4283 29.2124 37.6732C29.0105 37.918 28.7368 38.0556 28.4513 38.0556H25.4731C25.3622 38.0554 25.2521 38.0347 25.1464 37.9942L14.0822 33.7244C14.0613 33.7165 14.0401 33.7099 14.0187 33.7048L10.2515 32.8444C10.2191 32.8373 10.1864 32.8335 10.1535 32.8333C10.085 32.8334 10.0171 32.8491 9.95331 32.8797L8.00083 33.8275V30.1223L10.6077 29.5956L13.6801 31.4625C13.7386 31.4978 13.8019 31.5199 13.8669 31.5278L29.5276 33.4241V34.7917ZM29.5276 32.1153L23.8978 31.4292L26.9207 29.5956L29.5276 30.1223V32.1153ZM23.0696 11.8139C23.0696 11.8485 23.0583 11.8817 23.0381 11.9062C23.0179 11.9307 22.9905 11.9444 22.962 11.9444H20.4864C20.4578 11.9444 20.4305 11.9307 20.4103 11.9062C20.3901 11.8817 20.3787 11.8485 20.3787 11.8139V10.7694C20.3787 10.7348 20.3901 10.7016 20.4103 10.6771C20.4305 10.6526 20.4578 10.6389 20.4864 10.6389H22.962C22.9905 10.6389 23.0179 10.6526 23.0381 10.6771C23.0583 10.7016 23.0696 10.7348 23.0696 10.7694V11.8139ZM23.0696 9.34639C23.0335 9.34247 22.9986 9.33333 22.962 9.33333H20.4864C20.2896 9.33376 20.096 9.39366 19.9231 9.50764C19.7502 9.62161 19.6035 9.78606 19.4961 9.98611H18.0323C17.925 9.78606 17.7782 9.62161 17.6053 9.50764C17.4325 9.39366 17.2389 9.33376 17.0421 9.33333H14.8421C15.2976 8.19388 15.5346 6.94413 15.5352 5.67778V4.76389H16.1186C17.0007 4.76389 17.7067 5.54722 18.4542 6.37299C19.1899 7.18635 19.9482 8.02778 20.9169 8.02778H23.0696V9.34639ZM17.1497 10.7694V11.8139C17.1497 11.8485 17.1384 11.8817 17.1182 11.9062C17.098 11.9307 17.0706 11.9444 17.0421 11.9444H14.5665C14.538 11.9444 14.5106 11.9307 14.4904 11.9062C14.4702 11.8817 14.4589 11.8485 14.4589 11.8139V10.7694C14.4589 10.7348 14.4702 10.7016 14.4904 10.6771C14.5106 10.6526 14.538 10.6389 14.5665 10.6389H17.0421C17.0706 10.6389 17.098 10.6526 17.1182 10.6771C17.1384 10.7016 17.1497 10.7348 17.1497 10.7694ZM25.2223 11.9444C25.2223 12.2907 25.1089 12.6228 24.907 12.8676C24.7052 13.1124 24.4314 13.25 24.1459 13.25V10.6389C24.4314 10.6389 24.7052 10.7764 24.907 11.0213C25.1089 11.2661 25.2223 11.5982 25.2223 11.9444ZM13.3825 10.7694V13.25C13.0971 13.25 12.8233 13.1124 12.6214 12.8676C12.4196 12.6228 12.3062 12.2907 12.3062 11.9444C12.3062 11.5982 12.4196 11.2661 12.6214 11.0213C12.8233 10.7764 13.0971 10.6389 13.3825 10.6389V10.7694ZM13.6204 9.33333H13.3825C13.1385 9.33639 12.8968 9.39027 12.6678 9.49261C12.449 8.4258 12.3525 7.3275 12.381 6.22872C12.4424 4.72733 13.0236 2.97789 14.4589 2.97789C14.5261 2.97782 14.5928 2.96232 14.6553 2.93219L16.6299 1.99285C17.578 1.54321 18.6062 1.40006 19.6137 1.57743C20.6211 1.7548 21.5733 2.2466 22.377 3.00465C22.4792 3.09865 22.5809 3.20506 22.673 3.30493C23.3414 4.06572 23.8407 5.01878 24.1247 6.07587C24.4087 7.13295 24.4682 8.25987 24.2977 9.35226C24.2466 9.34769 24.1998 9.33333 24.1459 9.33333V7.375C24.1459 7.20187 24.0892 7.03584 23.9883 6.91342C23.8874 6.791 23.7505 6.72222 23.6078 6.72222H20.9169C20.3669 6.72222 19.7905 6.08381 19.1797 5.40818C18.3536 4.49429 17.4188 3.45833 16.1186 3.45833H14.997C14.8543 3.45833 14.7174 3.52711 14.6165 3.64953C14.5156 3.77195 14.4589 3.93798 14.4589 4.11111V5.67778C14.4584 6.96607 14.1685 8.22985 13.6204 9.33333V9.33333ZM14.4589 14.502V13.2369C14.4949 13.2409 14.5299 13.25 14.5665 13.25H17.0421C17.1976 13.25 17.3515 13.2129 17.4952 13.1407C17.6388 13.0685 17.7693 12.9627 17.8793 12.8294C17.9892 12.696 18.0764 12.5377 18.1359 12.3635C18.1954 12.1892 18.2261 12.0025 18.2261 11.8139V11.2917H19.3024V11.8139C19.3024 12.1948 19.4271 12.56 19.6492 12.8294C19.8712 13.0987 20.1724 13.25 20.4864 13.25H22.962C22.9986 13.25 23.0335 13.2409 23.0696 13.2369V14.502C23.0705 15.4448 22.9001 16.3762 22.5704 17.23C22.2408 18.0838 21.76 18.8389 21.1623 19.4416C20.5297 20.08 19.733 20.4298 18.9101 20.4306H18.6184C17.7955 20.4298 16.9987 20.08 16.3661 19.4416C15.7685 18.8389 15.2877 18.0838 14.958 17.23C14.6284 16.3762 14.4579 15.4448 14.4589 14.502V14.502ZM21.6655 23.3472C21.3248 23.8706 20.8893 24.2919 20.3927 24.5784C19.8962 24.8649 19.352 25.009 18.8022 24.9994C18.2524 24.9898 17.7118 24.8268 17.2222 24.5231C16.7327 24.2194 16.3074 23.7831 15.9792 23.2479C16.1751 23.0665 16.334 22.8328 16.4437 22.565C16.5533 22.2972 16.6108 22.0025 16.6116 21.7035V21.1721C17.2367 21.5418 17.9229 21.7346 18.6184 21.7361H18.9101C19.6056 21.7346 20.2917 21.5418 20.9169 21.1721V21.7035C20.9175 22.0317 20.9865 22.3545 21.1173 22.6418C21.2482 22.9292 21.4367 23.1718 21.6655 23.3472V23.3472ZM18.8611 26.3056C19.6405 26.3037 20.4072 26.0659 21.0916 25.6137C21.776 25.1615 22.3566 24.5092 22.7806 23.716L27.1694 24.3818C27.82 24.4801 28.4186 24.8631 28.8528 25.459C29.2871 26.0548 29.527 26.8224 29.5276 27.6176V28.7992L26.9256 28.273C26.8134 28.2495 26.6979 28.2704 26.5962 28.3324L23.4555 30.2372L18.7642 30.8097L15.6014 30.4259C15.5131 30.1321 15.4249 29.8384 15.3323 29.5466C14.7473 27.647 14.0881 25.7605 13.3761 23.9262C13.4789 23.9112 13.5806 23.8948 13.6801 23.8779L14.0375 23.8243H14.0542H14.0596C14.1367 23.813 14.2126 23.8013 14.2872 23.7891L14.9152 23.6931C15.3386 24.4961 15.9222 25.1565 16.612 25.6132C17.3017 26.0698 18.0753 26.308 18.8611 26.3056V26.3056ZM16.6116 17.0812L16.5287 17.0655L16.6901 15.7749L16.7725 15.7906C17.2299 15.86 17.6915 15.8792 18.1518 15.8481C18.3084 15.8383 18.4747 15.8337 18.6388 15.8337H18.8842C19.05 15.8337 19.2147 15.8383 19.3718 15.8481C19.8321 15.8794 20.2938 15.8599 20.7512 15.79L20.833 15.7749L20.9944 17.0655L20.9169 17.0805C20.5486 17.1413 20.1773 17.1701 19.8056 17.1667C19.6441 17.1667 19.4795 17.1621 19.3212 17.1523C19.1813 17.1432 19.0355 17.1392 18.8907 17.1392H18.6453C18.4984 17.1392 18.3525 17.1432 18.2148 17.1523C17.6797 17.1882 17.143 17.1644 16.6116 17.0812V17.0812ZM9.05349 24.3551L8.03097 24.7689C7.91508 24.3503 7.80261 23.9301 7.69354 23.5084L8.72037 23.1167C8.82908 23.531 8.94012 23.9438 9.05349 24.3551Z" fill="white"/>
</svg>
