<svg width="36" height="40" viewBox="0 0 36 40" fill="none" xmlns="http://www.w3.org/2000/svg">
<path d="M35.1969 5.07199C35.1138 4.97599 34.9892 4.928 34.8646 4.976L34.5323 5.07199V3.29599C34.5323 3.15199 34.4908 3.00799 34.3662 2.91199C34.2415 2.81599 34.1169 2.816 33.9923 2.864L33.3692 3.104V1.61599C33.3692 1.47199 33.2862 1.32799 33.1615 1.23199C33.0369 1.13599 32.8708 1.13599 32.7462 1.18399L18.2908 9.2L18 9.296L17.8338 9.248L3.29538 1.18399C3.17076 1.13599 3.00461 1.13599 2.87999 1.23199C2.75538 1.27999 2.6723 1.47199 2.6723 1.61599V3.19999L2.00769 2.91199C1.88307 2.86399 1.75846 2.86399 1.63384 2.95999C1.55076 3.05599 1.46769 3.2 1.46769 3.344V5.02399L1.13538 4.928C1.01076 4.88 0.886148 4.92799 0.803071 5.02399C0.678456 5.11999 0.636917 5.264 0.636917 5.408V33.92C0.636917 34.16 0.761533 34.352 0.969225 34.4L17.9169 38.864C17.9585 38.864 17.9585 38.864 18 38.864C18.0415 38.864 18.0415 38.864 18.0831 38.864L35.0308 34.448C35.2385 34.4 35.3631 34.208 35.3631 33.968V5.456C35.3631 5.312 35.28 5.16799 35.1969 5.07199ZM33.7015 5.26399L24.7292 7.616L32.9123 4.30399H32.9538C33.0785 4.30399 33.2031 4.256 33.2862 4.16L33.7015 3.968V5.26399V5.26399ZM32.5385 2.384V3.43999L25.3523 6.368L32.5385 2.384ZM3.50307 2.384L11.0215 6.55999L3.50307 3.488V2.384V2.384ZM2.29846 4.016L2.92153 4.256C2.92153 4.256 2.92153 4.256 2.96307 4.256L10.8138 7.42399L2.33999 5.216V4.016H2.29846ZM1.46769 6.03199L17.5846 10.256V37.808L1.46769 33.584V6.03199V6.03199ZM34.5323 33.584L18.4154 37.808V10.256L34.5323 6.03199V33.584Z" fill="white"/>
<path d="M20.6584 17.36C20.7 17.36 20.7415 17.36 20.7415 17.36L32.58 14.24C32.7877 14.192 32.9123 14 32.9123 13.76V10.304C32.9123 10.16 32.8292 10.016 32.7461 9.91998C32.6631 9.82398 32.5384 9.77598 32.4138 9.82398L20.5754 12.944C20.3677 12.992 20.2431 13.184 20.2431 13.424V16.88C20.2431 17.024 20.3261 17.168 20.4092 17.264C20.4923 17.312 20.5754 17.36 20.6584 17.36ZM21.0738 13.808L32.0815 10.88V13.328L21.0738 16.256V13.808V13.808Z" fill="white"/>
<path d="M13.7215 15.872L3.87691 13.28C3.75229 13.28 3.62768 13.28 3.5446 13.376C3.41999 13.472 3.37845 13.616 3.37845 13.76V31.28C3.37845 31.52 3.50306 31.712 3.71076 31.76L13.5554 34.352C13.5969 34.352 13.5969 34.352 13.6384 34.352C13.7215 34.352 13.8046 34.304 13.8877 34.256C14.0123 34.16 14.0538 34.016 14.0538 33.872V16.352C14.0538 16.112 13.9292 15.92 13.7215 15.872ZM13.1815 33.296L4.16768 30.944V14.384L13.1815 16.736V33.296Z" fill="white"/>
<path d="M31.5415 24.608L32.3308 22.928C32.3723 22.784 32.3723 22.64 32.3308 22.496C32.2477 22.352 32.1646 22.256 32.04 22.208L30.7938 21.824L30.8354 20.192C30.8354 20.048 30.7938 19.904 30.6692 19.808C30.5446 19.712 30.42 19.664 30.2954 19.712L28.8831 20.192L28.2185 18.944C28.1769 18.8 28.0523 18.704 27.9277 18.704C27.8031 18.656 27.6785 18.704 27.5954 18.8L26.3492 20.096L25.1031 19.52C24.8954 19.424 24.6462 19.52 24.5631 19.76L23.8569 21.536L22.32 21.872C22.1123 21.92 21.9877 22.112 21.9877 22.352L22.0708 24.08L20.7 25.28C20.6169 25.376 20.5338 25.472 20.5338 25.616C20.5338 25.712 20.5338 25.856 20.6169 25.952L21.4062 27.104L20.6169 28.784C20.5754 28.928 20.5754 29.072 20.6169 29.216C20.7 29.36 20.7831 29.456 20.9077 29.504L22.1538 29.888L22.1123 31.52C22.1123 31.664 22.1538 31.808 22.2785 31.904C22.4031 32 22.5277 32.048 22.6523 32L24.0646 31.52L24.7292 32.768C24.7708 32.912 24.8954 33.008 25.02 33.008H25.0615C25.1862 33.008 25.2692 32.96 25.3523 32.816L26.5985 31.52L27.8446 32.096C28.0523 32.192 28.3015 32.096 28.3846 31.856L29.0908 30.176L30.6277 29.84C30.8354 29.792 30.96 29.6 30.96 29.36L30.8769 27.632L32.2477 26.432C32.3308 26.336 32.4138 26.24 32.4138 26.096C32.4138 26 32.4138 25.856 32.3308 25.76L31.5415 24.608ZM30.1708 26.864C30.0462 26.96 30.0046 27.152 30.0046 27.296L30.0877 28.832L28.7169 29.168C28.5923 29.216 28.4677 29.312 28.4262 29.456L27.8031 31.04L26.6815 30.56C26.5569 30.512 26.3908 30.512 26.2662 30.656L25.1862 31.76L24.6462 30.704C24.5631 30.56 24.3969 30.464 24.2723 30.464C24.2308 30.464 24.1892 30.464 24.1477 30.512L22.9846 30.896V29.552C23.0262 29.312 22.86 29.12 22.6938 29.072L21.6554 28.736L22.32 27.344C22.4031 27.152 22.3615 26.96 22.2785 26.816L21.5723 25.76L22.7769 24.704C22.9015 24.608 22.9431 24.416 22.9431 24.272L22.86 22.736L24.2308 22.4C24.3969 22.4 24.48 22.256 24.5215 22.16L25.1446 20.576L26.2662 21.056C26.3908 21.104 26.5569 21.056 26.6815 20.96L27.8031 19.856L28.3431 20.912C28.4262 21.056 28.6338 21.152 28.8 21.104L30.0046 20.72L29.9631 22.064C29.9215 22.304 30.0877 22.496 30.2538 22.544L31.2923 22.88L30.6277 24.224C30.5446 24.416 30.5862 24.608 30.6692 24.752L31.3754 25.808L30.1708 26.864Z" fill="white"/>
<path d="M3.66921 11.84L8.44613 13.088C8.48767 13.088 8.48767 13.088 8.52921 13.088C8.69536 13.088 8.90305 12.944 8.90305 12.704C8.94459 12.464 8.77844 12.176 8.57074 12.128L3.83536 10.88C3.62767 10.832 3.37844 11.024 3.3369 11.264C3.29536 11.504 3.46151 11.792 3.66921 11.84Z" fill="white"/>
</svg>
