<svg width="36" height="40" viewBox="0 0 36 40" fill="none" xmlns="http://www.w3.org/2000/svg">
<path d="M29.7772 10.0578C29.7772 9.42246 29.1906 8.90769 28.466 8.90769H7.13942C6.41533 8.90769 5.82869 9.42246 5.82869 10.0578C5.82869 10.6937 6.41533 11.2084 7.13942 11.2084H28.466C29.1906 11.2084 29.7772 10.6937 29.7772 10.0578Z" fill="white"/>
<path d="M7.13942 7.52665H10.1526C10.8767 7.52665 11.4633 7.01145 11.4633 6.37606C11.4633 5.74068 10.8767 5.22548 10.1526 5.22548H7.13942C6.41532 5.22548 5.82869 5.74068 5.82869 6.37606C5.82869 7.01145 6.41532 7.52665 7.13942 7.52665Z" fill="white"/>
<path d="M26.9604 7.52665H28.466C29.1906 7.52665 29.7772 7.01145 29.7772 6.37606C29.7772 5.74068 29.1906 5.22548 28.466 5.22548H26.9604C26.2358 5.22548 25.6487 5.74068 25.6487 6.37606C25.6487 7.01145 26.2358 7.52665 26.9604 7.52665Z" fill="white"/>
<path d="M34.5641 1.63373C34.5641 0.998343 33.977 0.483574 33.2529 0.483574H2.3526C1.62851 0.483574 1.04187 0.998343 1.04187 1.63373V38.6648C1.04187 39.3006 1.62851 39.8154 2.3526 39.8154H33.2529C33.977 39.8154 34.5641 39.3006 34.5641 38.6648V1.63373ZM27.5569 33.3974C27.7517 33.4038 27.9545 33.4068 28.1607 33.4068C28.5475 33.4068 28.9049 33.3913 29.2475 33.3694L27.9766 34.7401C27.8818 34.3201 27.7468 33.8738 27.5569 33.3974ZM3.66382 2.78431H31.9421V30.1601C31.436 30.7641 30.0831 31.1057 28.1607 31.1057C26.8141 31.1057 25.6885 30.9342 25.6781 30.9329C25.1823 30.8545 24.6811 31.0329 24.3866 31.3904C24.091 31.7471 24.0547 32.2209 24.2933 32.6095C25.9231 35.2742 25.6016 36.8401 25.2859 37.5147H3.66382V2.78431ZM31.9421 37.5142H28.7836L31.9421 34.1094V37.5142Z" fill="white"/>
</svg>
