<svg xmlns="http://www.w3.org/2000/svg" viewBox="0 0 64 80" x="0px" y="0px"><g><path d="M30.228,35.92c-.038,0-.07.012-.1.017h-.006l-1.413.176-.311.04-.536.068-.275.031c-.288.036-.583.073-.857.114-.209.024-.435.054-.655.082-1.13-2.289-2.317-4.5-3.54-6.581l-1.53-3.646a1,1,0,0,0-1.294-.541l-.72.288-1.634-10.99a1,1,0,0,0-.486-.716L8.082,9.136a1,1,0,0,0-1.47.607L4.034,19.42a1,1,0,0,0,.167.859L10.92,29.2l-.682.273a1,1,0,0,0-.55,1.315l1.521,3.622C12.373,38.762,13.615,42.684,15,46.4V62h2v-.556A3.959,3.959,0,0,0,19,62H34a1,1,0,0,0,.99-1.138A15.175,15.175,0,0,0,34.579,59L37,58.23l11.256,3.582A3.994,3.994,0,0,0,49.466,62H55a3.959,3.959,0,0,0,2-.556V62h2V44.01a7,7,0,0,0-6.135-6.942l-9-1.13A.993.993,0,0,1,43,34.95V32.776A11.792,11.792,0,0,0,46.951,24.8l.237-.82a3.987,3.987,0,0,0,2.028-7.307A12.172,12.172,0,0,0,45.6,5.275c-.209-.187-.44-.384-.66-.552A12.923,12.923,0,0,0,32.305,2.889L28.8,4.263c-3.678.117-5.494,3.512-5.661,6.873a21.6,21.6,0,0,0,.769,6.354,3.954,3.954,0,0,0,1.777,6.271A21.3,21.3,0,0,0,27.6,27.613,11.8,11.8,0,0,0,31,32.776V34.95A.984.984,0,0,1,30.228,35.92ZM6.092,19.465l1.7-6.377,2.854,6.8a1.935,1.935,0,0,0-.274,1.984A2.039,2.039,0,0,0,13,22.957a2,2,0,0,0,1.11-1.09,1.967,1.967,0,0,0,0-1.53A2.018,2.018,0,0,0,12.5,19.13L9.658,12.37l5.8,3.379,1.632,10.983-4.242,1.7Zm5.833,11.488.952-.381h0l.215-.086L19.545,27.9l.78,1.856L12.7,32.806Zm5,14.879c-1.3-3.46-2.467-7.109-3.565-11.13l7.853-3.143c1.171,2.032,2.31,4.184,3.39,6.408,1.528,3.147,2.926,6.408,4.153,9.7.053.14.1.283.156.424l-.627-.063-5.836-2.918a.988.988,0,0,0-.612-.091l-.618.1c-.555-1.361-1.1-2.769-1.614-4.221l-1.885.668c.473,1.334.972,2.628,1.479,3.889ZM31.438,60l1.229-.391c.036.132.077.26.11.391Zm-6.295-.095A2.1,2.1,0,0,1,24.53,60H19a2,2,0,0,1-2-2V55.677l4.1-1.64,6.654,1.253L33.7,57.181ZM57,55v3a2,2,0,0,1-2,2H49.466a2.019,2.019,0,0,1-.607-.094L28.3,53.365a1.132,1.132,0,0,0-.118-.03l-7-1.318A1.044,1.044,0,0,0,21,52a1.016,1.016,0,0,0-.372.071L17,53.523V47.847l4.844-.807L27.553,49.9a1,1,0,0,0,.347.1L57,52.905Zm0-4.1L46.539,49.849l5.617-2.809L57,47.847ZM45,19.8a.2.2,0,0,1-.2.2H40.2a.2.2,0,0,1-.2-.2V18.2a.2.2,0,0,1,.2-.2h4.6a.2.2,0,0,1,.2.2Zm0-3.78c-.067-.006-.132-.02-.2-.02H40.2a2.2,2.2,0,0,0-1.84,1H35.64a2.2,2.2,0,0,0-1.84-1H29.712A12.853,12.853,0,0,0,31,10.4V9h1.084c1.639,0,2.951,1.2,4.34,2.465C37.791,12.711,39.2,14,41,14h4ZM34,18.2v1.6a.2.2,0,0,1-.2.2H29.2a.2.2,0,0,1-.2-.2V18.2a.2.2,0,0,1,.2-.2h4.6A.2.2,0,0,1,34,18.2ZM49,20a2,2,0,0,1-2,2V18A2,2,0,0,1,49,20ZM27,18.2V22a2,2,0,1,1,0-4Zm.442-2.2H27a3.959,3.959,0,0,0-1.328.244,18.324,18.324,0,0,1-.533-5c.114-2.3,1.194-4.98,3.861-4.98a.991.991,0,0,0,.365-.07l3.669-1.439A10.919,10.919,0,0,1,43.713,6.305c.19.144.379.307.55.46a10.122,10.122,0,0,1,3.019,9.264C47.187,16.022,47.1,16,47,16V13a1,1,0,0,0-1-1H41c-1.022,0-2.093-.978-3.228-2.013C36.237,8.587,34.5,7,32.084,7H30a1,1,0,0,0-1,1V10.4A10.861,10.861,0,0,1,27.442,16ZM29,23.918V21.98c.067.006.132.02.2.02h4.6A2.2,2.2,0,0,0,36,19.8V19h2v.8A2.2,2.2,0,0,0,40.2,22h4.6c.068,0,.133-.014.2-.02v1.938a9.825,9.825,0,0,1-3.544,7.567A6.551,6.551,0,0,1,37.271,33h-.542a6.551,6.551,0,0,1-4.185-1.515A9.825,9.825,0,0,1,29,23.918Zm13.391,13.55a6.657,6.657,0,0,1-10.566-.152A2.989,2.989,0,0,0,33,34.95v-.814A8.543,8.543,0,0,0,36.729,35h.542A8.543,8.543,0,0,0,41,34.136v.814A2.987,2.987,0,0,0,42.391,37.468ZM37.18,42a8.7,8.7,0,0,0,7.283-3.967l8.155,1.02A5,5,0,0,1,57,44.01v1.81l-4.835-.806a.988.988,0,0,0-.612.091l-5.836,2.918L37,48.9l-5.877-.588c-.164-.45-.328-.9-.5-1.347-1.087-2.91-2.312-5.8-3.635-8.61.191-.023.38-.048.565-.074l.664-.082.031,0h.01q.215-.026.423-.054l1.167-.147A8.677,8.677,0,0,0,37.18,42ZM33,27.869l-.154-.024.3-1.977.153.024a14.246,14.246,0,0,0,2.563.088c.291-.015.6-.022.905-.022h.456c.308,0,.614.007.906.022a14.153,14.153,0,0,0,2.563-.089l.152-.023.3,1.977L41,27.868A14.49,14.49,0,0,1,38.935,28c-.3,0-.606-.007-.9-.022-.26-.014-.531-.02-.8-.02h-.456c-.273,0-.544.006-.8.02A16.256,16.256,0,0,1,33,27.869ZM18.956,39.012l-1.9.634q-.323-.962-.627-1.931l1.908-.6Q18.64,38.067,18.956,39.012Z"/></g><text x="0" y="79" fill="#000000" font-size="5px" font-weight="bold" font-family="'Helvetica Neue', Helvetica, Arial-Unicode, Arial, Sans-serif">Created by monkik</text><text x="0" y="84" fill="#000000" font-size="5px" font-weight="bold" font-family="'Helvetica Neue', Helvetica, Arial-Unicode, Arial, Sans-serif">from the Noun Project</text></svg>