<svg width="30" height="47" viewBox="0 0 30 47" fill="none" xmlns="http://www.w3.org/2000/svg">
<path d="M14.1688 21.103C14.151 21.103 14.136 21.11 14.1219 21.113H14.1191L13.4568 21.2164L13.311 21.2399L13.0598 21.2798L12.9309 21.298C12.7959 21.3192 12.6576 21.3409 12.5292 21.365C12.4312 21.3791 12.3253 21.3967 12.2222 21.4132C11.6925 20.0684 11.1361 18.7694 10.5629 17.5469L9.84573 15.4048C9.79811 15.2627 9.70783 15.1498 9.59437 15.0903C9.48091 15.0308 9.35335 15.0297 9.23919 15.087L8.90171 15.2562L8.13581 8.79957C8.12539 8.71255 8.09952 8.62957 8.06009 8.55676C8.02066 8.48396 7.96868 8.42318 7.908 8.37892L3.78835 5.3674C3.72602 5.32187 3.65616 5.29498 3.58419 5.28883C3.51222 5.28268 3.44008 5.29744 3.37341 5.33194C3.30673 5.36645 3.24731 5.41979 3.19977 5.48779C3.15223 5.55579 3.11785 5.63663 3.09932 5.72401L1.89093 11.4092C1.87261 11.4953 1.87013 11.5855 1.88369 11.6729C1.89725 11.7603 1.9265 11.8427 1.96921 11.9139L5.1186 17.155L4.79893 17.3154C4.74121 17.3444 4.68868 17.3875 4.64439 17.4422C4.60009 17.4969 4.56493 17.5621 4.54093 17.634C4.51694 17.7059 4.5046 17.7831 4.50464 17.861C4.50467 17.9389 4.51707 18.0161 4.54112 18.0879L5.25406 20.2159C5.79966 22.7727 6.38182 25.0768 7.03101 27.26V36.425H7.96847V36.0983C8.25221 36.3098 8.57582 36.4226 8.90593 36.425H15.9369C16.0039 36.425 16.0701 36.4069 16.131 36.3721C16.192 36.3373 16.2463 36.2865 16.2903 36.2231C16.3343 36.1597 16.3669 36.0853 16.386 36.0048C16.4051 35.9243 16.4101 35.8396 16.4009 35.7564C16.355 35.3871 16.2907 35.0217 16.2083 34.6625L17.343 34.2101L22.6191 36.3145C22.8025 36.3877 22.9938 36.4249 23.1862 36.425H25.7802C26.1103 36.4226 26.4339 36.3098 26.7176 36.0983V36.425H27.6551V25.8559C27.6546 24.8536 27.3621 23.8861 26.8326 23.1351C26.303 22.3841 25.5729 21.9013 24.7794 21.7774L20.5609 21.1136C20.4485 21.0953 20.3453 21.0262 20.2707 20.9193C20.196 20.8125 20.155 20.6752 20.1554 20.5331V19.2559C21.2374 18.0571 21.9021 16.3752 22.0074 14.57L22.1185 14.0882C22.5127 14.0667 22.8913 13.8893 23.2001 13.5814C23.509 13.2736 23.7321 12.8511 23.8377 12.3745C23.9432 11.898 23.9257 11.3918 23.7876 10.9285C23.6495 10.4652 23.398 10.0685 23.069 9.79539C23.2701 8.59076 23.2198 7.34146 22.9229 6.16837C22.6259 4.99527 22.0925 3.93808 21.3741 3.09906C21.2761 2.9892 21.1679 2.87346 21.0648 2.77476C20.2365 1.96776 19.2553 1.44418 18.2171 1.25531C17.179 1.06643 16.1195 1.21873 15.1424 1.69729L13.4995 2.50451C11.7755 2.57325 10.9243 4.56781 10.846 6.5424C10.8176 7.80226 10.9391 9.06039 11.2064 10.2754C11.0144 10.5654 10.8815 10.9097 10.8194 11.2785C10.7572 11.6473 10.7675 12.0295 10.8495 12.3922C10.9315 12.7548 11.0827 13.087 11.29 13.3601C11.4973 13.6332 11.7545 13.8389 12.0394 13.9596C12.2769 14.75 12.5776 15.5082 12.937 16.2226C13.2437 17.3933 13.7938 18.4403 14.5307 19.2559V20.5331C14.5317 20.6657 14.4962 20.7947 14.4303 20.8985C14.3645 21.0022 14.2721 21.0744 14.1688 21.103ZM2.85558 11.4357L3.65241 7.6892L4.99017 11.6842C4.88596 11.8453 4.81891 12.0391 4.79627 12.2446C4.77363 12.45 4.79627 12.6593 4.86174 12.8498C4.96043 13.1362 5.14435 13.363 5.37438 13.482C5.60442 13.601 5.86243 13.6029 6.09355 13.4872C6.21001 13.4295 6.31605 13.343 6.40541 13.2331C6.49477 13.1231 6.56565 12.9918 6.61384 12.8469C6.66175 12.7046 6.68643 12.5518 6.68643 12.3974C6.68643 12.243 6.66175 12.0902 6.61384 11.948C6.54855 11.7574 6.44449 11.5916 6.31206 11.4671C6.17964 11.3427 6.02348 11.264 5.85919 11.2389L4.52706 7.26737L7.24569 9.25254L8.01065 15.705L6.02231 16.7038L2.85558 11.4357ZM5.58967 18.1849L6.0359 17.961L6.13668 17.9105L9.16138 16.3912L9.52699 17.4816L5.95294 19.2735L5.58967 18.1849ZM7.93331 26.9263C7.32397 24.8935 6.77696 22.7498 6.2623 20.3874L9.94322 18.5409C10.4921 19.7347 11.026 20.999 11.5322 22.3056C12.2484 24.1545 12.9037 26.0703 13.4788 28.0044C13.5037 28.0866 13.5257 28.1706 13.552 28.2535L13.2581 28.2164L10.5226 26.5021C10.434 26.4463 10.3334 26.4275 10.2357 26.4487L9.94604 26.5074C9.68589 25.7078 9.43043 24.8806 9.18951 24.0276L8.30595 24.42C8.52766 25.2037 8.76156 25.964 8.9992 26.7048L7.93331 26.9263ZM14.736 35.25L15.312 35.0203C15.3289 35.0978 15.3481 35.173 15.3636 35.25H14.736ZM11.7853 35.1942C11.6923 35.2305 11.5955 35.2493 11.498 35.25H8.90593C8.6573 35.25 8.41885 35.1262 8.24304 34.9058C8.06724 34.6855 7.96847 34.3866 7.96847 34.075V32.7102L9.89026 31.7467L13.0092 32.4829L15.7962 33.5938L11.7853 35.1942ZM26.7176 32.3125V34.075C26.7176 34.3866 26.6189 34.6855 26.443 34.9058C26.2672 35.1262 26.0288 35.25 25.7802 35.25H23.1862C23.0897 35.2499 22.9937 35.2313 22.9017 35.1948L13.2651 31.3519C13.2469 31.3448 13.2285 31.3389 13.2098 31.3343L9.92869 30.56C9.90054 30.5535 9.872 30.5502 9.84338 30.55C9.78369 30.5501 9.72454 30.5642 9.66902 30.5917L7.96847 31.4448V28.1101L10.239 27.636L12.915 29.3162C12.9659 29.348 13.021 29.3679 13.0776 29.375L26.7176 31.0817V32.3125ZM26.7176 29.9037L21.8142 29.2863L24.4471 27.636L26.7176 28.1101V29.9037ZM21.0929 11.6325C21.0929 11.6637 21.083 11.6935 21.0654 11.7156C21.0478 11.7376 21.024 11.75 20.9991 11.75H18.843C18.8181 11.75 18.7943 11.7376 18.7767 11.7156C18.7591 11.6935 18.7492 11.6637 18.7492 11.6325V10.6925C18.7492 10.6613 18.7591 10.6314 18.7767 10.6094C18.7943 10.5874 18.8181 10.575 18.843 10.575H20.9991C21.024 10.575 21.0478 10.5874 21.0654 10.6094C21.083 10.6314 21.0929 10.6613 21.0929 10.6925V11.6325ZM21.0929 9.41175C21.0615 9.40822 21.031 9.4 20.9991 9.4H18.843C18.6716 9.40038 18.503 9.4543 18.3524 9.55688C18.2018 9.65945 18.074 9.80745 17.9805 9.9875H16.7056C16.6121 9.80745 16.4843 9.65945 16.3337 9.55688C16.1831 9.4543 16.0145 9.40038 15.8431 9.4H13.9269C14.3237 8.37449 14.5301 7.24972 14.5307 6.11V5.2875H15.0388C15.807 5.2875 16.422 5.9925 17.0731 6.73569C17.7138 7.46771 18.3742 8.225 19.218 8.225H21.0929V9.41175ZM15.9369 10.6925V11.6325C15.9369 11.6637 15.927 11.6935 15.9094 11.7156C15.8918 11.7376 15.868 11.75 15.8431 11.75H13.687C13.6621 11.75 13.6383 11.7376 13.6207 11.7156C13.6031 11.6935 13.5932 11.6637 13.5932 11.6325V10.6925C13.5932 10.6613 13.6031 10.6314 13.6207 10.6094C13.6383 10.5874 13.6621 10.575 13.687 10.575H15.8431C15.868 10.575 15.8918 10.5874 15.9094 10.6094C15.927 10.6314 15.9369 10.6613 15.9369 10.6925ZM22.9678 11.75C22.9678 12.0616 22.869 12.3605 22.6932 12.5808C22.5174 12.8012 22.279 12.925 22.0303 12.925V10.575C22.279 10.575 22.5174 10.6988 22.6932 10.9191C22.869 11.1395 22.9678 11.4384 22.9678 11.75ZM12.6558 10.6925V12.925C12.4071 12.925 12.1687 12.8012 11.9929 12.5808C11.8171 12.3605 11.7183 12.0616 11.7183 11.75C11.7183 11.4384 11.8171 11.1395 11.9929 10.9191C12.1687 10.6988 12.4071 10.575 12.6558 10.575V10.6925ZM12.8629 9.4H12.6558C12.4432 9.40275 12.2327 9.45124 12.0333 9.54335C11.8427 8.58322 11.7586 7.59475 11.7835 6.60585C11.8369 5.2546 12.3431 3.6801 13.5932 3.6801C13.6518 3.68004 13.7099 3.66608 13.7643 3.63897L15.4841 2.79356C16.3099 2.38888 17.2054 2.26005 18.0829 2.41968C18.9603 2.57932 19.7897 3.02194 20.4896 3.70419C20.5787 3.78879 20.6673 3.88455 20.7474 3.97444C21.3296 4.65915 21.7645 5.5169 22.0118 6.46828C22.2592 7.41965 22.311 8.43388 22.1625 9.41704C22.118 9.41292 22.0772 9.4 22.0303 9.4V7.6375C22.0303 7.48168 21.9809 7.33225 21.893 7.22207C21.8051 7.1119 21.6859 7.05 21.5616 7.05H19.218C18.7389 7.05 18.2369 6.47542 17.7049 5.86736C16.9854 5.04486 16.1712 4.1125 15.0388 4.1125H14.0619C13.9376 4.1125 13.8184 4.1744 13.7305 4.28457C13.6426 4.39475 13.5932 4.54418 13.5932 4.7V6.11C13.5928 7.26946 13.3403 8.40686 12.8629 9.4ZM13.5932 14.0518V12.9132C13.6246 12.9168 13.6551 12.925 13.687 12.925H15.8431C15.9785 12.925 16.1126 12.8916 16.2377 12.8266C16.3628 12.7617 16.4765 12.6665 16.5723 12.5464C16.668 12.4264 16.744 12.2839 16.7958 12.1271C16.8476 11.9703 16.8743 11.8022 16.8743 11.6325V11.1625H17.8118V11.6325C17.8118 11.9753 17.9204 12.304 18.1138 12.5464C18.3072 12.7888 18.5695 12.925 18.843 12.925H20.9991C21.031 12.925 21.0615 12.9168 21.0929 12.9132V14.0518C21.0937 14.9003 20.9453 15.7386 20.6581 16.507C20.371 17.2754 19.9523 17.955 19.4317 18.4974C18.8807 19.072 18.1868 19.3868 17.4701 19.3875H17.216C16.4993 19.3868 15.8054 19.072 15.2544 18.4974C14.7338 17.955 14.3151 17.2754 14.028 16.507C13.7408 15.7386 13.5924 14.9003 13.5932 14.0518ZM19.87 22.0124C19.5732 22.4836 19.1939 22.8627 18.7614 23.1206C18.329 23.3784 17.8549 23.5081 17.3761 23.4994C16.8972 23.4908 16.4264 23.3441 16 23.0708C15.5737 22.7975 15.2032 22.4048 14.9174 21.9231C15.088 21.7598 15.2264 21.5496 15.3219 21.3085C15.4174 21.0675 15.4674 20.8022 15.4681 20.5331V20.0549C16.0126 20.3876 16.6103 20.5612 17.216 20.5625H17.4701C18.0758 20.5612 18.6735 20.3876 19.218 20.0549V20.5331C19.2185 20.8286 19.2785 21.119 19.3925 21.3776C19.5065 21.6362 19.6707 21.8546 19.87 22.0124ZM17.4274 24.675C18.1062 24.6733 18.774 24.4593 19.3701 24.0523C19.9662 23.6454 20.4719 23.0583 20.8412 22.3444L24.6637 22.9436C25.2303 23.0321 25.7517 23.3768 26.1299 23.9131C26.5081 24.4493 26.7171 25.1401 26.7176 25.8559V26.9192L24.4513 26.4457C24.3536 26.4246 24.253 26.4433 24.1645 26.4992L21.429 28.2135L17.343 28.7287L14.5883 28.3833C14.5115 28.1189 14.4346 27.8545 14.354 27.5919C13.8445 25.8823 13.2703 24.1844 12.6501 22.5336C12.7397 22.52 12.8282 22.5054 12.915 22.4901L13.2262 22.4419H13.2407H13.2454C13.3126 22.4317 13.3787 22.4212 13.4437 22.4102L13.9907 22.3238C14.3594 23.0465 14.8677 23.6409 15.4685 24.0519C16.0692 24.4628 16.743 24.6772 17.4274 24.675ZM15.4681 16.373L15.3959 16.3589L15.5366 15.1974L15.6083 15.2115C16.0067 15.274 16.4088 15.2913 16.8096 15.2632C16.946 15.2544 17.0909 15.2503 17.2338 15.2503H17.4476C17.5919 15.2503 17.7354 15.2544 17.8722 15.2632C18.2731 15.2914 18.6752 15.2739 19.0736 15.211L19.1448 15.1974L19.2855 16.3589L19.218 16.3724C18.8972 16.4272 18.5737 16.4531 18.25 16.45C18.1094 16.45 17.966 16.4459 17.8282 16.4371C17.7063 16.4288 17.5793 16.4253 17.4532 16.4253H17.2395C17.1115 16.4253 16.9845 16.4288 16.8645 16.4371C16.3984 16.4694 15.931 16.4479 15.4681 16.373ZM8.8853 22.9195L7.99472 23.292C7.89378 22.9152 7.79582 22.5371 7.70083 22.1576L8.59516 21.8051C8.68984 22.1779 8.78656 22.5494 8.8853 22.9195Z" fill="white"/>
</svg>
