<svg width="30" height="38" viewBox="0 0 30 38" fill="none" xmlns="http://www.w3.org/2000/svg">
<path d="M21.2565 15.0158C19.1127 16.0628 16.9947 16.5555 15.1179 16.5644C13.2411 16.5555 11.1231 16.0628 8.9793 15.0158L8.4411 16.1412C8.4411 16.1412 9.1773 17.3888 10.2405 17.5545C11.3037 17.7202 13.0731 17.6734 13.0731 17.6734L13.3746 17.0833C13.3746 17.0833 14.2095 17.2186 15.1176 17.2228H15.1179H15.1182C16.0263 17.2183 16.8612 17.0833 16.8612 17.0833L17.1627 17.6734C17.1627 17.6734 18.9321 17.7202 19.9953 17.5545C21.0585 17.3888 21.7947 16.1412 21.7947 16.1412L21.2565 15.0158ZM12.8796 17.3411C12.8796 17.3411 10.5549 17.245 10.0254 16.9267C9.4959 16.6084 9.1299 16.2722 9.1299 16.2722L9.3753 15.7706C9.3753 15.7706 10.7874 16.5558 13.1337 16.8525L12.8796 17.3411ZM20.2104 16.9267C19.6809 17.2453 17.3562 17.3411 17.3562 17.3411L17.1021 16.8525C19.4484 16.5558 20.8605 15.7706 20.8605 15.7706L21.1059 16.2722C21.1059 16.2722 20.7399 16.6081 20.2104 16.9267Z" fill="white"/>
<path d="M23.4366 11.3535C23.4366 11.3535 23.1318 6.54268 22.8531 6.10127C22.5744 5.65986 22.3479 4.4241 22.3479 4.4241C22.3479 4.4241 19.6914 1.52455 15.1185 1.52455C10.5456 1.52486 7.8885 4.4241 7.8885 4.4241C7.8885 4.4241 7.662 5.65986 7.3833 6.10127C7.1046 6.54268 6.7998 11.3535 6.7998 11.3535L6.5385 11.7064V17.2675L7.0611 18.0752C7.0611 18.0752 7.4532 20.9751 7.845 22.2108C8.2371 23.4466 10.4583 27.6087 13.2459 28.7739C13.2459 28.7739 14.2473 28.8754 15.1182 28.8754C15.9891 28.8754 16.9911 28.7739 16.9911 28.7739C19.7787 27.6087 21.9999 23.4466 22.392 22.2108C22.7841 20.9751 23.1759 18.0752 23.1759 18.0752L23.6985 17.2675V11.7067L23.4366 11.3535ZM18.2322 27.5667L17.2647 26.9557L15.1179 26.9867L12.9711 26.9557L12.0036 27.5667C10.9638 26.7225 10.2705 25.7372 10.2705 25.7372L10.5294 24.8921L11.5335 26.0814L12.5352 25.2207L15.1176 25.1633L17.7 25.2207L18.7017 26.0814L19.7058 24.8921L19.9647 25.7372C19.9647 25.7372 19.2723 26.7225 18.2322 27.5667ZM21.9687 19.1036C21.5331 19.898 19.56 23.0891 19.6167 24.6206L18.8862 25.4858L18.1053 24.7842L15.1182 24.7267L12.1305 24.7842L11.3496 25.4858L10.6191 24.6206C10.6758 23.0891 8.7027 19.898 8.2671 19.1036C7.8315 18.3093 7.4832 17.1353 7.4832 16.6628C7.4832 16.1904 8.2107 13.6307 8.2107 13.6307L7.9185 6.56943C8.9031 4.30524 12.2436 3.95199 12.2436 3.95199C12.2436 3.95199 12.9099 9.04095 13.0842 9.95447C13.2585 10.8634 13.5501 10.8944 15.1176 10.8944C16.6851 10.8944 16.9773 10.8634 17.1516 9.95447C17.3259 9.04095 17.9922 3.95199 17.9922 3.95199C17.9922 3.95199 21.3327 4.30493 22.3173 6.56913L22.0254 13.6307C22.0254 13.6307 22.7529 16.1907 22.7529 16.6628C22.7529 17.1349 22.4043 18.3093 21.9687 19.1036Z" fill="white"/>
</svg>
