<svg width="30" height="40" viewBox="0 0 30 40" fill="none" xmlns="http://www.w3.org/2000/svg">
<path d="M25.4275 20.0225C21.8545 21.5182 18.3245 22.2222 15.1965 22.2348C12.0685 22.2222 8.5385 21.5182 4.9655 20.0225L4.0685 21.6303C4.0685 21.6303 5.2955 23.4126 7.0675 23.6493C8.8395 23.8859 11.7885 23.8191 11.7885 23.8191L12.291 22.9761C12.291 22.9761 13.6825 23.1694 15.196 23.1754H15.1965H15.197C16.7105 23.1689 18.102 22.9761 18.102 22.9761L18.6045 23.8191C18.6045 23.8191 21.5535 23.8859 23.3255 23.6493C25.0975 23.4126 26.3245 21.6303 26.3245 21.6303L25.4275 20.0225ZM11.466 23.3444C11.466 23.3444 7.5915 23.2071 6.709 22.7525C5.8265 22.2978 5.2165 21.8174 5.2165 21.8174L5.6255 21.1009C5.6255 21.1009 7.979 22.2226 11.8895 22.6465L11.466 23.3444ZM23.684 22.7525C22.8015 23.2076 18.927 23.3444 18.927 23.3444L18.5035 22.6465C22.414 22.2226 24.7675 21.1009 24.7675 21.1009L25.1765 21.8174C25.1765 21.8174 24.5665 22.2973 23.684 22.7525Z" fill="white"/>
<path d="M29.061 14.7907C29.061 14.7907 28.553 7.91812 28.0885 7.28754C27.624 6.65695 27.2465 4.89158 27.2465 4.89158C27.2465 4.89158 22.819 0.749367 15.1975 0.749367C7.576 0.749801 3.14749 4.89158 3.14749 4.89158C3.14749 4.89158 2.76999 6.65695 2.30549 7.28754C1.84099 7.91812 1.33299 14.7907 1.33299 14.7907L0.897491 15.2949V23.2393L1.76849 24.3932C1.76849 24.3932 2.42199 28.5358 3.07499 30.3012C3.72849 32.0666 7.4305 38.0124 12.0765 39.677C12.0765 39.677 13.7455 39.822 15.197 39.822C16.6485 39.822 18.3185 39.677 18.3185 39.677C22.9645 38.0124 26.6665 32.0666 27.32 30.3012C27.9735 28.5358 28.6265 24.3932 28.6265 24.3932L29.4975 23.2393V15.2953L29.061 14.7907ZM20.387 37.9524L18.7745 37.0795L15.1965 37.1238L11.6185 37.0795L10.006 37.9524C8.273 36.7464 7.1175 35.3389 7.1175 35.3389L7.549 34.1316L9.2225 35.8305L10.892 34.6011L15.196 34.519L19.5 34.6011L21.1695 35.8305L22.843 34.1316L23.2745 35.3389C23.2745 35.3389 22.1205 36.7464 20.387 37.9524ZM26.6145 25.8624C25.8885 26.9972 22.6 31.5559 22.6945 33.7438L21.477 34.9798L20.1755 33.9774L15.197 33.8953L10.2175 33.9774L8.916 34.9798L7.6985 33.7438C7.793 31.5559 4.50449 26.9972 3.77849 25.8624C3.05249 24.7276 2.47199 23.0504 2.47199 22.3755C2.47199 21.7006 3.68449 18.0439 3.68449 18.0439L3.19749 7.95634C4.83849 4.72178 10.406 4.21714 10.406 4.21714C10.406 4.21714 11.5165 11.4871 11.807 12.7921C12.0975 14.0906 12.5835 14.1349 15.196 14.1349C17.8085 14.1349 18.2955 14.0906 18.586 12.7921C18.8765 11.4871 19.987 4.21714 19.987 4.21714C19.987 4.21714 25.5545 4.72134 27.1955 7.9559L26.709 18.0439C26.709 18.0439 27.9215 21.701 27.9215 22.3755C27.9215 23.0499 27.3405 24.7276 26.6145 25.8624Z" fill="white"/>
</svg>
