<svg width="30" height="45" viewBox="0 0 30 45" fill="none" xmlns="http://www.w3.org/2000/svg">
<path d="M27.42 6.804C27.36 6.732 27.27 6.696 27.18 6.732L26.94 6.804V5.472C26.94 5.364 26.91 5.256 26.82 5.184C26.73 5.112 26.64 5.112 26.55 5.148L26.1 5.328V4.212C26.1 4.104 26.04 3.996 25.95 3.924C25.86 3.852 25.74 3.852 25.65 3.888L15.21 9.9L15 9.972L14.88 9.936L4.37999 3.888C4.28999 3.852 4.16999 3.852 4.07999 3.924C3.98999 3.96 3.92999 4.104 3.92999 4.212V5.4L3.44999 5.184C3.35999 5.148 3.26999 5.148 3.17999 5.22C3.11999 5.292 3.05999 5.4 3.05999 5.508V6.768L2.81999 6.696C2.72999 6.66 2.63999 6.696 2.57999 6.768C2.48999 6.84 2.45999 6.948 2.45999 7.056V28.44C2.45999 28.62 2.54999 28.764 2.69999 28.8L14.94 32.148C14.97 32.148 14.97 32.148 15 32.148C15.03 32.148 15.03 32.148 15.06 32.148L27.3 28.836C27.45 28.8 27.54 28.656 27.54 28.476V7.092C27.54 6.984 27.48 6.876 27.42 6.804ZM26.34 6.948L19.86 8.712L25.77 6.228H25.8C25.89 6.228 25.98 6.192 26.04 6.12L26.34 5.976V6.948ZM25.5 4.788V5.58L20.31 7.776L25.5 4.788ZM4.52999 4.788L9.95999 7.92L4.52999 5.616V4.788ZM3.65999 6.012L4.10999 6.192C4.10999 6.192 4.10999 6.192 4.13999 6.192L9.80999 8.568L3.68999 6.912V6.012H3.65999ZM3.05999 7.524L14.7 10.692V31.356L3.05999 28.188V7.524ZM26.94 28.188L15.3 31.356V10.692L26.94 7.524V28.188Z" fill="white"/>
<path d="M16.92 16.02C16.95 16.02 16.98 16.02 16.98 16.02L25.53 13.68C25.68 13.644 25.77 13.5 25.77 13.32V10.728C25.77 10.62 25.71 10.512 25.65 10.44C25.59 10.368 25.5 10.332 25.41 10.368L16.86 12.708C16.71 12.744 16.62 12.888 16.62 13.068V15.66C16.62 15.768 16.68 15.876 16.74 15.948C16.8 15.984 16.86 16.02 16.92 16.02ZM17.22 13.356L25.17 11.16V12.996L17.22 15.192V13.356Z" fill="white"/>
<path d="M11.91 14.904L4.79999 12.96C4.70999 12.96 4.61999 12.96 4.55999 13.032C4.46999 13.104 4.43999 13.212 4.43999 13.32V26.46C4.43999 26.64 4.52999 26.784 4.67999 26.82L11.79 28.764C11.82 28.764 11.82 28.764 11.85 28.764C11.91 28.764 11.97 28.728 12.03 28.692C12.12 28.62 12.15 28.512 12.15 28.404V15.264C12.15 15.084 12.06 14.94 11.91 14.904ZM11.52 27.972L5.00999 26.208V13.788L11.52 15.552V27.972Z" fill="white"/>
<path d="M24.78 21.456L25.35 20.196C25.38 20.088 25.38 19.98 25.35 19.872C25.29 19.764 25.23 19.692 25.14 19.656L24.24 19.368L24.27 18.144C24.27 18.036 24.24 17.928 24.15 17.856C24.06 17.784 23.97 17.748 23.88 17.784L22.86 18.144L22.38 17.208C22.35 17.1 22.26 17.028 22.17 17.028C22.08 16.992 21.99 17.028 21.93 17.1L21.03 18.072L20.13 17.64C19.98 17.568 19.8 17.64 19.74 17.82L19.23 19.152L18.12 19.404C17.97 19.44 17.88 19.584 17.88 19.764L17.94 21.06L16.95 21.96C16.89 22.032 16.83 22.104 16.83 22.212C16.83 22.284 16.83 22.392 16.89 22.464L17.46 23.328L16.89 24.588C16.86 24.696 16.86 24.804 16.89 24.912C16.95 25.02 17.01 25.092 17.1 25.128L18 25.416L17.97 26.64C17.97 26.748 18 26.856 18.09 26.928C18.18 27 18.27 27.036 18.36 27L19.38 26.64L19.86 27.576C19.89 27.684 19.98 27.756 20.07 27.756H20.1C20.19 27.756 20.25 27.72 20.31 27.612L21.21 26.64L22.11 27.072C22.26 27.144 22.44 27.072 22.5 26.892L23.01 25.632L24.12 25.38C24.27 25.344 24.36 25.2 24.36 25.02L24.3 23.724L25.29 22.824C25.35 22.752 25.41 22.68 25.41 22.572C25.41 22.5 25.41 22.392 25.35 22.32L24.78 21.456ZM23.79 23.148C23.7 23.22 23.67 23.364 23.67 23.472L23.73 24.624L22.74 24.876C22.65 24.912 22.56 24.984 22.53 25.092L22.08 26.28L21.27 25.92C21.18 25.884 21.06 25.884 20.97 25.992L20.19 26.82L19.8 26.028C19.74 25.92 19.62 25.848 19.53 25.848C19.5 25.848 19.47 25.848 19.44 25.884L18.6 26.172V25.164C18.63 24.984 18.51 24.84 18.39 24.804L17.64 24.552L18.12 23.508C18.18 23.364 18.15 23.22 18.09 23.112L17.58 22.32L18.45 21.528C18.54 21.456 18.57 21.312 18.57 21.204L18.51 20.052L19.5 19.8C19.62 19.8 19.68 19.692 19.71 19.62L20.16 18.432L20.97 18.792C21.06 18.828 21.18 18.792 21.27 18.72L22.08 17.892L22.47 18.684C22.53 18.792 22.68 18.864 22.8 18.828L23.67 18.54L23.64 19.548C23.61 19.728 23.73 19.872 23.85 19.908L24.6 20.16L24.12 21.168C24.06 21.312 24.09 21.456 24.15 21.564L24.66 22.356L23.79 23.148Z" fill="white"/>
<path d="M4.64998 11.88L8.09998 12.816C8.12998 12.816 8.12998 12.816 8.15998 12.816C8.27998 12.816 8.42998 12.708 8.42998 12.528C8.45998 12.348 8.33998 12.132 8.18998 12.096L4.76998 11.16C4.61998 11.124 4.43998 11.268 4.40998 11.448C4.37998 11.628 4.49998 11.844 4.64998 11.88Z" fill="white"/>
</svg>
