<svg width="35" height="40" viewBox="0 0 35 40" fill="none" xmlns="http://www.w3.org/2000/svg">
<path d="M16.9762 0.487981C16.3946 0.292957 15.7786 0.286898 15.1943 0.470456C14.61 0.654013 14.0795 1.02025 13.6596 1.52986L1.59551 16.1586C1.22117 16.4301 0.91116 16.8073 0.693957 17.2555L0.458612 17.9205C0.301152 18.56 0.32506 19.2419 0.526754 19.8642C0.728448 20.4865 1.09707 21.0156 1.5774 21.3722C1.66692 21.4398 1.76004 21.5007 1.8562 21.5543C1.7874 21.5925 1.72223 21.6306 1.65706 21.6772C1.25955 21.9476 0.930065 22.3359 0.701848 22.8029C0.47363 23.2699 0.35476 23.799 0.357233 24.3369C0.358283 24.8552 0.470547 25.3649 0.683731 25.8192C0.896916 26.2736 1.2042 26.658 1.5774 26.9374C1.667 27.0036 1.76012 27.063 1.8562 27.1153C1.79103 27.1534 1.72223 27.1915 1.65706 27.2381C1.25955 27.5085 0.930065 27.8968 0.701848 28.3638C0.47363 28.8308 0.35476 29.36 0.357233 29.8979C0.358283 30.4161 0.470547 30.9258 0.683731 31.3802C0.896916 31.8345 1.2042 32.219 1.5774 32.4983C1.78133 32.6533 2.00326 32.7731 2.23637 32.8541L20.3796 39.2494L20.8503 39.4146L21.1038 39.1054L34.084 23.3586V6.18869L33.6133 6.02351L16.9762 0.487981ZM14.181 2.11857C14.4877 1.75341 14.868 1.48442 15.2868 1.33638C15.7057 1.18835 16.1497 1.16604 16.5779 1.27151L4.45223 16.095L3.74982 15.8494H3.70275C3.60745 15.8179 3.51075 15.7924 3.41309 15.7732H3.30085H3.06913H2.99309L14.181 2.11857ZM20.376 38.3557L2.50792 32.0579L2.43913 32.0367C2.27262 31.9788 2.1141 31.8933 1.96844 31.7826C1.69749 31.5804 1.47429 31.3019 1.3193 30.9726C1.1643 30.6433 1.08249 30.2738 1.08137 29.8979C1.08326 29.3058 1.28467 28.7385 1.6419 28.319C1.99912 27.8996 2.48334 27.6619 2.98947 27.6574C3.17838 27.6583 3.36618 27.6911 3.54706 27.7548L20.3796 33.6842L20.376 38.3557ZM20.376 32.7948L2.50792 26.4969L2.43913 26.4757C2.27262 26.4179 2.1141 26.3323 1.96844 26.2216C1.69773 26.0192 1.4747 25.7406 1.31974 25.4114C1.16478 25.0822 1.08282 24.7128 1.08137 24.3369C1.08232 23.7445 1.28342 23.1766 1.64085 22.7569C1.99828 22.3372 2.48304 22.0998 2.98947 22.0965C3.17839 22.0972 3.36621 22.13 3.54706 22.1939L20.3796 28.1233L20.376 32.7948ZM20.376 27.2339L2.5043 20.936L2.43551 20.9148C2.269 20.857 2.11048 20.7714 1.96482 20.6607C1.69359 20.4579 1.47024 20.1786 1.31525 19.8486C1.16026 19.5186 1.0786 19.1483 1.07775 18.7717C1.07598 18.381 1.16243 17.9967 1.32836 17.6575C1.4943 17.3184 1.73383 17.0366 2.02275 16.8405C2.09506 16.791 2.17005 16.7472 2.24723 16.7092C2.47643 16.5959 2.72255 16.5369 2.97137 16.5355H3.03654H3.21396H3.30447C3.38756 16.5509 3.46978 16.5721 3.55068 16.599L20.376 22.5412V27.2339ZM20.6331 21.7661L5.23068 16.3365L17.3745 1.51292L33.0412 6.72233L20.6331 21.7661ZM33.3598 23.0367L21.1002 37.8772V33.5529L33.3598 18.6786V23.0367ZM33.3598 17.4757L21.1002 32.3162V27.9793L33.3598 13.1176V17.4757ZM33.3598 11.9148L21.1002 26.7765V22.4183L33.3598 7.55669V11.9148Z" fill="white"/>
<path d="M20.8725 5.10572L20.6738 5.92029L29.8937 8.99652L30.0923 8.18195L20.8725 5.10572Z" fill="white"/>
<path d="M18.9749 7.32869L18.7766 8.14334L27.9973 11.2158L28.1957 10.4012L18.9749 7.32869Z" fill="white"/>
<path d="M20.3875 10.6575L20.1891 11.4722L26.0984 13.4412L26.2967 12.6265L20.3875 10.6575Z" fill="white"/>
</svg>
