<svg width="30" height="45" viewBox="0 0 30 45" fill="none" xmlns="http://www.w3.org/2000/svg">
<path d="M15.066 1.41478C14.5841 1.24901 14.0737 1.24386 13.5896 1.39989C13.1054 1.55591 12.6658 1.86722 12.318 2.30038L2.322 14.7348C2.01183 14.9656 1.75496 15.2862 1.575 15.6672L1.38 16.2324C1.24953 16.776 1.26934 17.3556 1.43646 17.8846C1.60357 18.4135 1.909 18.8632 2.307 19.1664C2.38116 19.2239 2.45832 19.2756 2.538 19.3212C2.481 19.3536 2.427 19.386 2.373 19.4256C2.04363 19.6555 1.77063 19.9855 1.58153 20.3825C1.39244 20.7794 1.29395 21.2292 1.296 21.6864C1.29687 22.1269 1.38988 22.5602 1.56652 22.9463C1.74316 23.3325 1.99777 23.6593 2.307 23.8968C2.38123 23.953 2.45839 24.0035 2.538 24.048C2.484 24.0804 2.427 24.1128 2.373 24.1524C2.04363 24.3823 1.77063 24.7123 1.58153 25.1093C1.39244 25.5062 1.29395 25.956 1.296 26.4132C1.29687 26.8537 1.38988 27.287 1.56652 27.6731C1.74316 28.0593 1.99777 28.3861 2.307 28.6236C2.47596 28.7553 2.65985 28.8571 2.853 28.926L17.886 34.362L18.276 34.5024L18.486 34.2396L29.241 20.8548V6.26038L28.851 6.11998L15.066 1.41478ZM12.75 2.80078C13.0041 2.4904 13.3192 2.26175 13.6662 2.13593C14.0133 2.0101 14.3812 1.99113 14.736 2.08078L4.689 14.6808L4.107 14.472H4.068C3.98903 14.4452 3.90891 14.4236 3.828 14.4072H3.735H3.543H3.48L12.75 2.80078ZM17.883 33.6024L3.078 28.2492L3.021 28.2312C2.88303 28.182 2.75169 28.1093 2.631 28.0152C2.4065 27.8434 2.22155 27.6066 2.09313 27.3267C1.96471 27.0468 1.89693 26.7327 1.896 26.4132C1.89756 25.9099 2.06445 25.4277 2.36043 25.0712C2.65642 24.7147 3.05763 24.5126 3.477 24.5088C3.63351 24.5096 3.78912 24.5374 3.939 24.5916L17.886 29.6316L17.883 33.6024ZM17.883 28.8756L3.078 23.5224L3.021 23.5044C2.88303 23.4552 2.75169 23.3825 2.631 23.2884C2.40669 23.1163 2.22189 22.8795 2.0935 22.5997C1.9651 22.3198 1.8972 22.0058 1.896 21.6864C1.89678 21.1828 2.06341 20.7001 2.35957 20.3434C2.65572 19.9866 3.05738 19.7848 3.477 19.782C3.63352 19.7826 3.78915 19.8105 3.939 19.8648L17.886 24.9048L17.883 28.8756ZM17.883 24.1488L3.075 18.7956L3.018 18.7776C2.88003 18.7284 2.74869 18.6557 2.628 18.5616C2.40326 18.3892 2.2182 18.1518 2.08978 17.8713C1.96136 17.5908 1.8937 17.2761 1.893 16.956C1.89153 16.6239 1.96316 16.2972 2.10065 16.0089C2.23814 15.7207 2.43661 15.4811 2.676 15.3144C2.73591 15.2724 2.79804 15.2351 2.862 15.2028C3.0519 15.1065 3.25583 15.0563 3.462 15.0552H3.516H3.663H3.738C3.80684 15.0682 3.87496 15.0863 3.942 15.1092L17.883 20.16V24.1488ZM18.096 19.5012L5.334 14.886L15.396 2.28598L28.377 6.71398L18.096 19.5012ZM28.641 20.5812L18.483 33.1956V29.52L28.641 16.8768V20.5812ZM28.641 15.8544L18.483 28.4688V24.7824L28.641 12.15V15.8544ZM28.641 11.1276L18.483 23.76V20.0556L28.641 7.42318V11.1276Z" fill="white"/>
<path d="M18.2943 5.33986L18.1298 6.03224L25.7691 8.64704L25.9337 7.95466L18.2943 5.33986Z" fill="white"/>
<path d="M16.7221 7.22939L16.5577 7.92184L24.1978 10.5334L24.3622 9.84099L16.7221 7.22939Z" fill="white"/>
<path d="M17.8925 10.0589L17.7281 10.7513L22.6243 12.425L22.7887 11.7325L17.8925 10.0589Z" fill="white"/>
</svg>
