<svg xmlns="http://www.w3.org/2000/svg" xmlns:xlink="http://www.w3.org/1999/xlink" version="1.1" x="0px" y="0px" viewBox="0 0 100 125" style="enable-background:new 0 0 100 100;" xml:space="preserve"><g><path d="M91.4,18.9c-0.2-0.2-0.5-0.3-0.8-0.2l-0.8,0.2v-3.7c0-0.3-0.1-0.6-0.4-0.8c-0.3-0.2-0.6-0.2-0.9-0.1L87,14.8v-3.1   c0-0.3-0.2-0.6-0.5-0.8c-0.3-0.2-0.7-0.2-1-0.1L50.7,27.5l-0.7,0.2l-0.4-0.1L14.6,10.8c-0.3-0.1-0.7-0.1-1,0.1   c-0.3,0.1-0.5,0.5-0.5,0.8V15l-1.6-0.6c-0.3-0.1-0.6-0.1-0.9,0.1c-0.2,0.2-0.4,0.5-0.4,0.8v3.5l-0.8-0.2c-0.3-0.1-0.6,0-0.8,0.2   c-0.3,0.2-0.4,0.5-0.4,0.8V79c0,0.5,0.3,0.9,0.8,1l40.8,9.3c0.1,0,0.1,0,0.2,0s0.1,0,0.2,0L91,80.1c0.5-0.1,0.8-0.5,0.8-1V19.7   C91.8,19.4,91.6,19.1,91.4,18.9z M87.8,19.3l-21.6,4.9l19.7-6.9c0,0,0.1,0,0.1,0c0.3,0,0.6-0.1,0.8-0.3l1-0.4V19.3z M85,13.3v2.2   l-17.3,6.1L85,13.3z M15.1,13.3L33.2,22l-18.1-6.4V13.3z M12.2,16.7l1.5,0.5c0,0,0,0,0.1,0l18.9,6.6l-20.4-4.6V16.7z M10.2,20.9   L49,29.7v57.4l-38.8-8.8V20.9z M89.8,78.3L51,87.1V29.7l38.8-8.8V78.3z"/><path d="M56.4,44.5c0.1,0,0.2,0,0.2,0L85.1,38c0.5-0.1,0.8-0.5,0.8-1v-7.2c0-0.3-0.2-0.6-0.4-0.8s-0.5-0.3-0.8-0.2l-28.5,6.5   c-0.5,0.1-0.8,0.5-0.8,1v7.2c0,0.3,0.2,0.6,0.4,0.8C56,44.4,56.2,44.5,56.4,44.5z M57.4,37.1L83.9,31v5.1l-26.5,6.1V37.1z"/><path d="M39.7,41.4L16,36c-0.3,0-0.6,0-0.8,0.2c-0.3,0.2-0.4,0.5-0.4,0.8v36.5c0,0.5,0.3,0.9,0.8,1l23.7,5.4c0.1,0,0.1,0,0.2,0   c0.2,0,0.4-0.1,0.6-0.2c0.3-0.2,0.4-0.5,0.4-0.8V42.4C40.5,41.9,40.2,41.5,39.7,41.4z M38.4,77.7l-21.7-4.9V38.3l21.7,4.9V77.7z"/><path d="M82.6,59.6l1.9-3.5c0.1-0.3,0.1-0.6,0-0.9c-0.2-0.3-0.4-0.5-0.7-0.6l-3-0.8l0.1-3.4c0-0.3-0.1-0.6-0.4-0.8   s-0.6-0.3-0.9-0.2l-3.4,1l-1.6-2.6c-0.1-0.3-0.4-0.5-0.7-0.5c-0.3-0.1-0.6,0-0.8,0.2l-3,2.7l-3-1.2c-0.5-0.2-1.1,0-1.3,0.5   l-1.7,3.7l-3.7,0.7c-0.5,0.1-0.8,0.5-0.8,1l0.2,3.6L56.5,61c-0.2,0.2-0.4,0.4-0.4,0.7c0,0.2,0,0.5,0.2,0.7l1.9,2.4l-1.9,3.5   c-0.1,0.3-0.1,0.6,0,0.9c0.2,0.3,0.4,0.5,0.7,0.6l3,0.8L59.9,74c0,0.3,0.1,0.6,0.4,0.8s0.6,0.3,0.9,0.2l3.4-1l1.6,2.6   c0.1,0.3,0.4,0.5,0.7,0.5H67c0.3,0,0.5-0.1,0.7-0.4l3-2.7l3,1.2c0.5,0.2,1.1,0,1.3-0.5l1.7-3.5l3.7-0.7c0.5-0.1,0.8-0.5,0.8-1   L81,65.9l3.3-2.5c0.2-0.2,0.4-0.4,0.4-0.7c0-0.2,0-0.5-0.2-0.7L82.6,59.6z M79.3,64.3c-0.3,0.2-0.4,0.6-0.4,0.9l0.2,3.2l-3.3,0.7   c-0.3,0.1-0.6,0.3-0.7,0.6L73.6,73l-2.7-1c-0.3-0.1-0.7-0.1-1,0.2l-2.6,2.3L66,72.3c-0.2-0.3-0.6-0.5-0.9-0.5c-0.1,0-0.2,0-0.3,0.1   L62,72.7v-2.8c0.1-0.5-0.3-0.9-0.7-1l-2.5-0.7l1.6-2.9c0.2-0.4,0.1-0.8-0.1-1.1L58.6,62l2.9-2.2c0.3-0.2,0.4-0.6,0.4-0.9l-0.2-3.2   L65,55c0.4,0,0.6-0.3,0.7-0.5l1.5-3.3l2.7,1c0.3,0.1,0.7,0,1-0.2l2.7-2.3l1.3,2.2c0.2,0.3,0.7,0.5,1.1,0.4l2.9-0.8l-0.1,2.8   c-0.1,0.5,0.3,0.9,0.7,1L82,56l-1.6,2.8c-0.2,0.4-0.1,0.8,0.1,1.1l1.7,2.2L79.3,64.3z"/><path d="M15.5,33L27,35.6c0.1,0,0.1,0,0.2,0c0.4,0,0.9-0.3,0.9-0.8c0.1-0.5-0.3-1.1-0.8-1.2L15.9,31c-0.5-0.1-1.1,0.3-1.2,0.8   C14.6,32.3,15,32.9,15.5,33z"/></g><text x="0" y="115" fill="#000000" font-size="5px" font-weight="bold" font-family="'Helvetica Neue', Helvetica, Arial-Unicode, Arial, Sans-serif">Created by María Villamil</text><text x="0" y="120" fill="#000000" font-size="5px" font-weight="bold" font-family="'Helvetica Neue', Helvetica, Arial-Unicode, Arial, Sans-serif">from the Noun Project</text></svg>