<svg xmlns="http://www.w3.org/2000/svg" data-name="Layer 1" viewBox="0 0 100 125" x="0px" y="0px"><title>icons_books_4</title><path d="M50.22,3.93a9.2,9.2,0,0,0-9.16,2.46L7.74,40.93a7.26,7.26,0,0,0-2.49,2.59L4.6,45.09a7.27,7.27,0,0,0,3.09,8.15,6.89,6.89,0,0,0,.77.43c-.19.09-.37.18-.55.29a7.22,7.22,0,0,0-3.59,6.28,7.31,7.31,0,0,0,3.37,6.14,6.87,6.87,0,0,0,.77.42c-.18.09-.37.18-.55.29a7.22,7.22,0,0,0-3.59,6.28,7.31,7.31,0,0,0,3.37,6.14,7,7,0,0,0,1.82.84l50.11,15.1,1.3.39.7-.73L97.47,57.93V17.39L96.17,17ZM42.5,7.78a7.2,7.2,0,0,1,6.62-2l-33.49,35-1.94-.58-.13,0a7.56,7.56,0,0,0-.8-.18l-.31,0-.64,0-.21,0ZM59.61,93.34,10.26,78.47l-.19-.05a5,5,0,0,1-1.3-.6,5.3,5.3,0,0,1-2.45-4.45,5.31,5.31,0,0,1,5.27-5.29,5.42,5.42,0,0,1,1.54.23l46.49,14Zm0-13.13L10.26,65.34l-.19-.05a5,5,0,0,1-1.3-.6,5.31,5.31,0,0,1-2.45-4.45,5.3,5.3,0,0,1,5.27-5.29,5.39,5.39,0,0,1,1.54.23l46.49,14Zm0-13.13L10.25,52.21l-.19-.05a5,5,0,0,1-1.3-.6A5.31,5.31,0,0,1,6.31,47.1a5.24,5.24,0,0,1,2.61-4.56,5.33,5.33,0,0,1,.62-.31h0a5.2,5.2,0,0,1,2-.41h.18l.49,0,.25,0a5.77,5.77,0,0,1,.68.15L59.61,56Zm.71-12.91L17.78,41.35l33.54-35L94.59,18.65Zm35.15,3L61.61,92.21V82L95.47,46.88Zm0-13.13L61.61,79.08V68.84L95.47,33.75Zm0-13.13L61.61,66V55.71L95.47,20.62Z"/><rect x="72.44" y="6.19" width="2" height="26.48" transform="translate(34.61 84.72) rotate(-74.08)"/><rect x="67.2" y="11.44" width="2" height="26.48" transform="translate(25.78 83.5) rotate(-74.1)"/><rect x="66.52" y="22.74" width="2" height="16.97" transform="translate(19 87.61) rotate(-74.1)"/><text x="0" y="115" fill="#000000" font-size="5px" font-weight="bold" font-family="'Helvetica Neue', Helvetica, Arial-Unicode, Arial, Sans-serif">Created by Iconic</text><text x="0" y="120" fill="#000000" font-size="5px" font-weight="bold" font-family="'Helvetica Neue', Helvetica, Arial-Unicode, Arial, Sans-serif">from the Noun Project</text></svg>