<svg width="47" height="40" viewBox="0 0 47 40" fill="none" xmlns="http://www.w3.org/2000/svg">
<path d="M35.4145 12.9262C35.463 14.2903 35.5257 15.654 35.616 17.0172C35.6166 17.0263 35.6197 17.034 35.6207 17.0431C35.6228 17.1367 35.6348 17.2342 35.663 17.3359C35.8161 17.8985 36.0547 18.1706 36.5728 18.4913C37.0313 18.775 37.7906 18.6881 38.1551 18.3036C40.5954 15.726 43.1298 13.2324 45.7513 10.8118C46.0234 10.793 46.2605 10.7018 46.4522 10.5574C46.7629 10.3361 46.9733 9.99864 46.9582 9.62088C46.9551 9.54072 46.9519 9.46056 46.9488 9.3804C46.9467 9.32472 46.9441 9.26904 46.942 9.21336C46.9399 9.16728 46.93 9.12312 46.9232 9.078C46.8919 8.8164 46.7749 8.56248 46.5597 8.36472C46.5326 8.33976 46.5007 8.32104 46.4715 8.29896C45.5534 7.18776 44.2097 6.44184 43.0039 5.59704C41.16 4.30536 39.3155 3.0132 37.4715 1.72152C36.6281 1.13064 35.5482 1.94904 35.5069 2.75784C35.4442 3.99336 35.4051 5.22936 35.3763 6.46536C31.3657 6.33912 27.1357 6.82248 23.9627 9.26664C22.6247 10.2972 21.6053 11.4881 20.7327 12.7649C20.2716 11.9743 19.7917 11.1929 19.2867 10.4249C17.2568 7.33848 13.9846 5.36904 10.2272 4.44888C7.78943 3.85176 1.10029 3.1956 1.20525 6.76584C1.24807 8.2188 2.58705 9.57768 3.9276 10.1714C4.56471 10.4537 5.26919 10.3558 5.94546 10.2746C7.52153 10.085 9.08402 10.6174 10.4455 11.2812C13.6864 12.8614 15.241 16.8017 16.7069 19.8026C14.9178 22.8506 12.915 25.8674 9.6428 27.7078C7.3962 28.9716 5.28694 28.3428 2.93537 28.8473C1.66167 29.1204 0.0339076 30.1711 0.00152983 31.4974C-0.0971702 35.5231 4.60179 35.4199 7.78421 34.9322C11.7395 34.326 15.7747 32.179 18.319 29.3436C19.0585 28.5194 19.7478 27.6444 20.4027 26.7415C21.2205 27.9833 22.1657 29.1511 23.3433 30.1874C26.5544 33.0137 31.1025 33.5945 35.3769 33.4654C35.4056 34.7018 35.4448 35.9383 35.5074 37.1743C35.5487 37.9831 36.6286 38.801 37.472 38.2106C39.316 36.919 41.1605 35.6268 43.0044 34.3351C44.2108 33.4903 45.5539 32.7444 46.472 31.6332C46.5012 31.6106 46.5331 31.5924 46.5603 31.5674C46.7754 31.3697 46.8924 31.1158 46.9237 30.8542C46.9305 30.809 46.941 30.7649 46.9425 30.7188C46.9446 30.6631 46.9472 30.6074 46.9493 30.5518C46.9613 30.4692 46.9645 30.3943 46.9587 30.3113C46.9739 29.9335 46.7634 29.5956 46.4522 29.3743C46.261 29.2303 46.0239 29.1386 45.7519 29.1204C43.1303 26.6998 40.596 24.2062 38.1556 21.6286C37.7916 21.2441 37.0318 21.1572 36.5733 21.4409C36.0552 21.7615 35.8166 22.0337 35.6636 22.5962C35.6359 22.6985 35.6239 22.7954 35.6213 22.889C35.6202 22.8982 35.6171 22.9058 35.6166 22.915C35.5267 24.2762 35.4641 25.638 35.4155 27.0007C33.0791 27.1068 30.7615 27.0055 28.682 25.8612C26.5602 24.6938 25.4802 21.9641 24.5068 19.9745C25.463 18.1274 26.3053 16.266 27.837 14.731C29.7034 12.8575 32.7517 12.7874 35.4145 12.9262ZM15.3361 28.7921C13.7031 30.3074 11.4977 31.3404 9.34409 32.0628C8.25055 32.43 7.09226 32.6479 5.93815 32.7674C5.58409 32.8039 1.59013 32.8543 2.71186 31.5977C3.6174 30.5834 6.29065 31.1527 7.55965 30.9929C9.3655 30.7654 11.2418 29.7578 12.6393 28.7402C14.9705 27.0425 16.5424 24.7889 18.0313 22.4638C18.3415 23.0887 18.6548 23.7108 18.9817 24.3252C17.9226 25.9346 16.7435 27.486 15.3361 28.7921ZM25.9894 26.898C28.6585 29.5745 33.066 29.5663 36.6782 29.3282C37.4026 29.2807 37.9645 28.818 37.9838 28.1282C38.0115 27.1457 38.0517 26.1636 38.0992 25.1825C39.9667 27.0919 41.8879 28.9538 43.8588 30.775C42.8055 31.7671 41.1913 32.6076 40.104 33.3694C39.4095 33.8561 38.7149 34.3428 38.0198 34.829C37.9911 33.9559 37.9697 33.0823 37.9572 32.2087C37.9483 31.5881 37.3691 30.965 36.6516 31.0087C31.4785 31.325 26.592 30.6372 23.3261 26.5649C21.3145 24.0569 20.1551 20.9302 18.7138 18.125C17.5022 15.7673 16.3178 13.1652 14.4535 11.1674C13.3433 9.97752 11.6492 8.97384 10.0496 8.46648C9.21196 8.20104 8.3597 7.96104 7.46879 7.90392C6.32825 7.83096 4.97988 8.29464 4.16208 7.31784C3.11084 6.06168 9.52112 6.76104 10.3055 6.95304C12.5302 7.49784 14.5835 8.77896 16.0875 10.3601C18.2527 12.6362 19.5849 15.9098 20.9693 18.6161C22.4362 21.4836 23.6269 24.5287 25.9894 26.898ZM23.0785 17.1146C22.76 16.4882 22.4372 15.8633 22.1072 15.2422C22.4853 14.6033 22.8848 13.9745 23.3261 13.3668C26.3476 9.20712 31.6581 8.61768 36.6516 8.92296C37.3691 8.96664 37.9483 8.3436 37.9572 7.72296C37.9697 6.84888 37.9911 5.97576 38.0198 5.10264C38.7144 5.58936 39.4089 6.07608 40.104 6.56232C41.1913 7.32408 42.8055 8.16504 43.8588 9.1572C41.8885 10.9783 39.9672 12.8402 38.0992 14.7497C38.0512 13.7681 38.011 12.7865 37.9838 11.8039C37.9645 11.1142 37.4026 10.6514 36.6782 10.6039C33.2911 10.3807 29.2115 10.3193 26.5221 12.5854C25.0008 13.866 23.9804 15.4538 23.0785 17.1146Z" fill="white"/>
</svg>
