<svg width="30" height="30" viewBox="0 0 30 30" fill="none" xmlns="http://www.w3.org/2000/svg">
<path d="M23.3445 11.4631C23.3724 12.1452 23.4084 12.827 23.4603 13.5086C23.4606 13.5132 23.4624 13.517 23.463 13.5216C23.4642 13.5684 23.4711 13.6171 23.4873 13.668C23.5752 13.9492 23.7123 14.0853 24.0099 14.2456C24.2733 14.3875 24.7095 14.344 24.9189 14.1518C26.3208 12.863 27.7767 11.6162 29.2827 10.4059C29.439 10.3965 29.5752 10.3509 29.6853 10.2787C29.8638 10.168 29.9847 9.99932 29.976 9.81044C29.9742 9.77036 29.9724 9.73028 29.9706 9.6902C29.9694 9.66236 29.9679 9.63452 29.9667 9.60668C29.9655 9.58364 29.9598 9.56156 29.9559 9.539C29.9379 9.4082 29.8707 9.28124 29.7471 9.18236C29.7315 9.16988 29.7132 9.16052 29.6964 9.14948C29.169 8.59388 28.3971 8.22092 27.7044 7.79852C26.6451 7.15268 25.5855 6.5066 24.5262 5.86076C24.0417 5.56532 23.4213 5.97452 23.3976 6.37892C23.3616 6.99668 23.3391 7.61468 23.3226 8.23268C21.0186 8.16956 18.5886 8.41124 16.7658 9.63332C15.9972 10.1486 15.4116 10.744 14.9103 11.3824C14.6454 10.9872 14.3697 10.5964 14.0796 10.2124C12.9135 8.66924 11.0337 7.68452 8.87518 7.22444C7.47478 6.92588 3.63208 6.5978 3.69238 8.38292C3.71698 9.1094 4.48618 9.78884 5.25628 10.0857C5.62228 10.2268 6.02698 10.1779 6.41548 10.1373C7.32088 10.0425 8.21848 10.3087 9.00058 10.6406C10.8624 11.4307 11.7555 13.4008 12.5976 14.9013C11.5698 16.4253 10.4193 17.9337 8.53948 18.8539C7.24888 19.4858 6.03718 19.1714 4.68628 19.4236C3.95458 19.5602 3.01948 20.0856 3.00088 20.7487C2.94418 22.7616 5.64358 22.71 7.47178 22.4661C9.74398 22.163 12.0621 21.0895 13.5237 19.6718C13.9485 19.2597 14.3445 18.8222 14.7207 18.3708C15.1905 18.9916 15.7335 19.5756 16.41 20.0937C18.2547 21.5068 20.8674 21.7972 23.3229 21.7327C23.3394 22.3509 23.3619 22.9692 23.3979 23.5872C23.4216 23.9916 24.042 24.4005 24.5265 24.1053C25.5858 23.4595 26.6454 22.8134 27.7047 22.1676C28.3977 21.7452 29.1693 21.3722 29.6967 20.8166C29.7135 20.8053 29.7318 20.7962 29.7474 20.7837C29.871 20.6848 29.9382 20.5579 29.9562 20.4271C29.9601 20.4045 29.9661 20.3824 29.967 20.3594C29.9682 20.3316 29.9697 20.3037 29.9709 20.2759C29.9778 20.2346 29.9796 20.1972 29.9763 20.1556C29.985 19.9668 29.8641 19.7978 29.6853 19.6872C29.5755 19.6152 29.4393 19.5693 29.283 19.5602C27.777 18.3499 26.3211 17.1031 24.9192 15.8143C24.7101 15.622 24.2736 15.5786 24.0102 15.7204C23.7126 15.8808 23.5755 16.0168 23.4876 16.2981C23.4717 16.3492 23.4648 16.3977 23.4633 16.4445C23.4627 16.4491 23.4609 16.4529 23.4606 16.4575C23.409 17.1381 23.373 17.819 23.3451 18.5004C22.0029 18.5534 20.6715 18.5028 19.4769 17.9306C18.258 17.3469 17.6376 15.982 17.0784 14.9872C17.6277 14.0637 18.1116 13.133 18.9915 12.3655C20.0637 11.4288 21.8148 11.3937 23.3445 11.4631ZM11.8101 19.396C10.872 20.1537 9.60508 20.6702 8.36788 21.0314C7.73968 21.215 7.07428 21.324 6.41128 21.3837C6.20788 21.402 3.91348 21.4272 4.55788 20.7988C5.07808 20.2917 6.61378 20.5764 7.34278 20.4964C8.38018 20.3827 9.45808 19.8789 10.2609 19.3701C11.6001 18.5212 12.5031 17.3944 13.3584 16.2319C13.5366 16.5444 13.7166 16.8554 13.9044 17.1626C13.296 17.9673 12.6186 18.743 11.8101 19.396ZM17.9301 18.449C19.4634 19.7872 21.9954 19.7832 24.0705 19.6641C24.4866 19.6404 24.8094 19.409 24.8205 19.0641C24.8364 18.5728 24.8595 18.0818 24.8868 17.5912C25.9596 18.546 27.0633 19.4769 28.1955 20.3875C27.5904 20.8836 26.6631 21.3038 26.0385 21.6847C25.6395 21.928 25.2405 22.1714 24.8412 22.4145C24.8247 21.978 24.8124 21.5412 24.8052 21.1044C24.8001 20.794 24.4674 20.4825 24.0552 20.5044C21.0834 20.6625 18.2763 20.3186 16.4001 18.2824C15.2445 17.0284 14.5785 15.4651 13.7505 14.0625C13.0545 12.8836 12.3741 11.5826 11.3031 10.5837C10.6653 9.98876 9.69208 9.48692 8.77318 9.23324C8.29198 9.10052 7.80238 8.98052 7.29058 8.95196C6.63538 8.91548 5.86078 9.14732 5.39098 8.65892C4.78708 8.03084 8.46958 8.38052 8.92018 8.47652C10.1982 8.74892 11.3778 9.38948 12.2418 10.18C13.4856 11.3181 14.2509 12.9549 15.0462 14.308C15.8889 15.7418 16.5729 17.2644 17.9301 18.449ZM16.2579 13.5573C16.0749 13.2441 15.8895 12.9316 15.6999 12.6211C15.9171 12.3016 16.1466 11.9872 16.4001 11.6834C18.1359 9.60356 21.1866 9.30884 24.0552 9.46148C24.4674 9.48332 24.8001 9.1718 24.8052 8.86148C24.8124 8.42444 24.8247 7.98788 24.8412 7.55132C25.2402 7.79468 25.6392 8.03804 26.0385 8.28116C26.6631 8.66204 27.5904 9.08252 28.1955 9.5786C27.0636 10.4892 25.9599 11.4201 24.8868 12.3748C24.8592 11.884 24.8361 11.3932 24.8205 10.902C24.8094 10.5571 24.4866 10.3257 24.0705 10.302C22.1247 10.1904 19.7811 10.1596 18.2361 11.2927C17.3622 11.933 16.776 12.7269 16.2579 13.5573Z" fill="white"/>
</svg>
