<svg xmlns="http://www.w3.org/2000/svg" xmlns:xlink="http://www.w3.org/1999/xlink" version="1.1" x="0px" y="0px" viewBox="0 0 100 125" enable-background="new 0 0 100 100" xml:space="preserve"><path d="M72.886,33.674c0.093,2.842,0.213,5.683,0.386,8.523c0.001,0.019,0.007,0.035,0.009,0.054  c0.004,0.195,0.027,0.398,0.081,0.61c0.293,1.172,0.75,1.739,1.742,2.407c0.878,0.591,2.332,0.41,3.03-0.391  c4.673-5.37,9.526-10.565,14.546-15.608c0.521-0.039,0.975-0.229,1.342-0.53c0.595-0.461,0.998-1.164,0.969-1.951  c-0.006-0.167-0.012-0.334-0.018-0.501c-0.004-0.116-0.009-0.232-0.013-0.348c-0.004-0.096-0.023-0.188-0.036-0.282  c-0.06-0.545-0.284-1.074-0.696-1.486c-0.052-0.052-0.113-0.091-0.169-0.137c-1.758-2.315-4.331-3.869-6.64-5.629  c-3.531-2.691-7.063-5.383-10.594-8.074c-1.615-1.231-3.683,0.474-3.762,2.159c-0.12,2.574-0.195,5.149-0.25,7.724  c-7.68-0.263-15.78,0.744-21.856,5.836c-2.562,2.147-4.514,4.628-6.185,7.288c-0.883-1.647-1.802-3.275-2.769-4.875  c-3.887-6.43-10.153-10.533-17.348-12.45c-4.668-1.244-17.477-2.611-17.276,4.827c0.082,3.027,2.646,5.858,5.213,7.095  c1.22,0.588,2.569,0.384,3.864,0.215c3.018-0.395,6.01,0.714,8.617,2.097c6.206,3.292,9.183,11.501,11.99,17.753  c-3.426,6.35-7.261,12.635-13.527,16.469c-4.302,2.633-8.341,1.323-12.844,2.374c-2.439,0.569-5.556,2.758-5.618,5.521  c-0.189,8.387,8.809,8.172,14.903,7.156c7.574-1.263,15.301-5.736,20.173-11.643c1.416-1.717,2.736-3.54,3.99-5.421  c1.566,2.587,3.376,5.02,5.631,7.179c6.149,5.888,14.858,7.098,23.043,6.829c0.055,2.576,0.13,5.152,0.25,7.727  c0.079,1.685,2.147,3.389,3.762,2.159c3.531-2.691,7.063-5.383,10.594-8.074c2.31-1.76,4.882-3.314,6.64-5.629  c0.056-0.047,0.117-0.085,0.169-0.137c0.412-0.412,0.636-0.941,0.696-1.486c0.013-0.094,0.033-0.186,0.036-0.282  c0.004-0.116,0.009-0.232,0.013-0.348c0.023-0.172,0.029-0.328,0.018-0.501c0.029-0.787-0.374-1.491-0.97-1.952  c-0.366-0.3-0.82-0.491-1.341-0.529c-5.02-5.043-9.873-10.238-14.546-15.608c-0.697-0.801-2.152-0.982-3.03-0.391  c-0.992,0.668-1.449,1.235-1.742,2.407c-0.053,0.213-0.076,0.415-0.081,0.61c-0.002,0.019-0.008,0.035-0.009,0.054  c-0.172,2.836-0.292,5.673-0.385,8.512c-4.474,0.221-8.912,0.01-12.894-2.374c-4.063-2.432-6.131-8.119-7.995-12.264  c1.831-3.848,3.444-7.726,6.377-10.924C61.95,33.531,67.787,33.385,72.886,33.674z M34.438,66.728  c-3.127,3.157-7.35,5.309-11.474,6.814c-2.094,0.765-4.312,1.219-6.522,1.468c-0.678,0.076-8.326,0.181-6.178-2.437  c1.734-2.113,6.853-0.927,9.283-1.26c3.458-0.474,7.051-2.573,9.727-4.693c4.464-3.537,7.474-8.232,10.325-13.076  c0.594,1.302,1.194,2.598,1.82,3.878C39.391,60.775,37.133,64.007,34.438,66.728z M54.838,62.782  c5.111,5.576,13.551,5.559,20.468,5.063c1.387-0.099,2.463-1.063,2.5-2.5c0.053-2.047,0.13-4.093,0.221-6.137  c3.576,3.978,7.255,7.857,11.029,11.651c-2.017,2.067-5.108,3.818-7.19,5.405c-1.33,1.014-2.66,2.028-3.991,3.041  c-0.055-1.819-0.096-3.639-0.12-5.459c-0.017-1.293-1.126-2.591-2.5-2.5c-9.906,0.659-19.263-0.774-25.517-9.258  c-3.852-5.225-6.072-11.739-8.832-17.583c-2.32-4.912-4.588-10.333-8.158-14.495c-2.126-2.479-5.37-4.57-8.433-5.627  c-1.604-0.553-3.236-1.053-4.942-1.172c-2.184-0.152-4.766,0.814-6.332-1.221c-2.013-2.617,10.262-1.16,11.764-0.76  c4.26,1.135,8.192,3.804,11.072,7.098c4.146,4.742,6.697,11.562,9.348,17.2C48.034,51.502,50.314,57.846,54.838,62.782z   M49.264,42.4c-0.61-1.305-1.228-2.607-1.86-3.901c0.724-1.331,1.489-2.641,2.334-3.907c5.786-8.666,15.955-9.894,25.517-9.258  c1.374,0.091,2.483-1.207,2.5-2.5c0.024-1.821,0.065-3.64,0.12-5.459c1.33,1.014,2.66,2.028,3.991,3.041  c2.082,1.587,5.173,3.339,7.19,5.406c-3.773,3.794-7.452,7.673-11.029,11.651c-0.092-2.045-0.169-4.09-0.221-6.137  c-0.037-1.437-1.113-2.401-2.5-2.5c-6.486-0.465-14.298-0.593-19.448,4.128C52.945,35.632,50.991,38.94,49.264,42.4z"/><text x="0" y="115" fill="#000000" font-size="5px" font-weight="bold" font-family="'Helvetica Neue', Helvetica, Arial-Unicode, Arial, Sans-serif">Created by Arthur Shlain</text><text x="0" y="120" fill="#000000" font-size="5px" font-weight="bold" font-family="'Helvetica Neue', Helvetica, Arial-Unicode, Arial, Sans-serif">from the Noun Project</text></svg>