<svg xmlns="http://www.w3.org/2000/svg" xmlns:xlink="http://www.w3.org/1999/xlink" version="1.1" x="0px" y="0px" viewBox="0 0 100 125" enable-background="new 0 0 100 100" xml:space="preserve"><path d="M77.324,26.92c0-1.475-1.195-2.67-2.671-2.67H31.21c-1.475,0-2.67,1.195-2.67,2.67c0,1.476,1.195,2.671,2.67,2.671h43.443  C76.129,29.591,77.324,28.396,77.324,26.92z"/><path d="M31.21,21.044h6.138c1.475,0,2.67-1.196,2.67-2.671s-1.195-2.671-2.67-2.671H31.21c-1.475,0-2.67,1.196-2.67,2.671  S29.735,21.044,31.21,21.044z"/><path d="M71.586,21.044h3.067c1.476,0,2.671-1.196,2.671-2.671s-1.195-2.671-2.671-2.671h-3.067c-1.476,0-2.672,1.196-2.672,2.671  S70.11,21.044,71.586,21.044z"/><path d="M87.075,7.364c0-1.475-1.196-2.67-2.671-2.67H21.459c-1.475,0-2.67,1.195-2.67,2.67v85.965c0,1.476,1.195,2.671,2.67,2.671  h62.945c1.475,0,2.671-1.195,2.671-2.671V7.364z M72.801,81.101c0.397,0.015,0.81,0.022,1.23,0.022c0.788,0,1.516-0.036,2.214-0.087  l-2.589,3.182C73.463,83.243,73.188,82.207,72.801,81.101z M24.13,10.035h57.604v63.551c-1.031,1.402-3.787,2.195-7.703,2.195  c-2.743,0-5.036-0.398-5.057-0.401c-1.01-0.182-2.031,0.232-2.631,1.062c-0.602,0.828-0.676,1.928-0.19,2.83  c3.32,6.186,2.665,9.821,2.022,11.387H24.13V10.035z M81.734,90.658h-6.434l6.434-7.904V90.658z"/><text x="0" y="115" fill="#000000" font-size="5px" font-weight="bold" font-family="'Helvetica Neue', Helvetica, Arial-Unicode, Arial, Sans-serif">Created by Andrey Vasiliev</text><text x="0" y="120" fill="#000000" font-size="5px" font-weight="bold" font-family="'Helvetica Neue', Helvetica, Arial-Unicode, Arial, Sans-serif">from the Noun Project</text></svg>