<svg width="30" height="35" viewBox="0 0 30 35" fill="none" xmlns="http://www.w3.org/2000/svg">
<path d="M23.1972 7.5376C23.1972 7.1246 22.8387 6.79 22.3959 6.79H9.36298C8.92048 6.79 8.56198 7.1246 8.56198 7.5376C8.56198 7.95088 8.92048 8.28548 9.36298 8.28548H22.3959C22.8387 8.28548 23.1972 7.95088 23.1972 7.5376Z" fill="white"/>
<path d="M9.36298 5.89232H11.2044C11.6469 5.89232 12.0054 5.55744 12.0054 5.14444C12.0054 4.73144 11.6469 4.39656 11.2044 4.39656H9.36298C8.92048 4.39656 8.56198 4.73144 8.56198 5.14444C8.56198 5.55744 8.92048 5.89232 9.36298 5.89232Z" fill="white"/>
<path d="M21.4758 5.89232H22.3959C22.8387 5.89232 23.1972 5.55744 23.1972 5.14444C23.1972 4.73144 22.8387 4.39656 22.3959 4.39656H21.4758C21.033 4.39656 20.6742 4.73144 20.6742 5.14444C20.6742 5.55744 21.033 5.89232 21.4758 5.89232Z" fill="white"/>
<path d="M26.1225 2.06192C26.1225 1.64892 25.7637 1.31432 25.3212 1.31432H6.4377C5.9952 1.31432 5.6367 1.64892 5.6367 2.06192V26.1321C5.6367 26.5454 5.9952 26.88 6.4377 26.88H25.3212C25.7637 26.88 26.1225 26.5454 26.1225 26.1321V2.06192ZM21.8403 22.7083C21.9594 22.7125 22.0833 22.7145 22.2093 22.7145C22.4457 22.7145 22.6641 22.7044 22.8735 22.6901L22.0968 23.5811C22.0389 23.3081 21.9564 23.018 21.8403 22.7083ZM7.239 2.8098H24.5202V20.6041C24.2109 20.9966 23.3841 21.2187 22.2093 21.2187C21.3864 21.2187 20.6985 21.1072 20.6922 21.1064C20.3892 21.0554 20.0829 21.1714 19.9029 21.4038C19.7223 21.6356 19.7001 21.9436 19.8459 22.1962C20.8419 23.9283 20.6454 24.9461 20.4525 25.3845H7.239V2.8098ZM24.5202 25.3843H22.59L24.5202 23.1711V25.3843Z" fill="white"/>
</svg>
